<?xml version="1.0" encoding="utf-8"?>
<!-- Generator: Adobe Illustrator 25.1.0, SVG Export Plug-In . SVG Version: 6.00 Build 0)  -->
<svg version="1.1" id="Layer_1" xmlns="http://www.w3.org/2000/svg" xmlns:xlink="http://www.w3.org/1999/xlink" x="0px" y="0px"
	 viewBox="0 0 56.693 170.079" style="enable-background:new 0 0 56.693 170.079;" xml:space="preserve">
<style type="text/css">
	.st0{fill:none;stroke:#000000;stroke-width:0.25;stroke-linecap:round;stroke-linejoin:round;stroke-miterlimit:10;}
</style>
<polyline class="st0" points="7.16,147.289 7.353,148.509 7.931,149.664 8.894,150.756 10.177,151.718 11.718,152.553 
	13.515,153.195 15.505,153.58 "/>
<polyline class="st0" points="47.921,148.573 49.077,147.803 49.975,146.968 50.681,146.005 51.067,144.978 51.195,143.951 "/>
<line class="st0" x1="38.806" y1="153.837" x2="47.921" y2="148.573"/>
<polyline class="st0" points="27.894,155.506 29.82,155.698 31.809,155.698 33.735,155.506 35.597,155.121 37.33,154.543 
	38.806,153.837 "/>
<line class="st0" x1="15.505" y1="153.58" x2="27.894" y2="155.506"/>
<line class="st0" x1="47.921" y1="148.573" x2="47.921" y2="146.904"/>
<line class="st0" x1="38.806" y1="153.837" x2="38.806" y2="152.168"/>
<line class="st0" x1="27.894" y1="155.506" x2="27.894" y2="153.837"/>
<line class="st0" x1="15.505" y1="153.58" x2="15.505" y2="151.911"/>
<line class="st0" x1="51.195" y1="143.951" x2="51.195" y2="142.282"/>
<line class="st0" x1="7.16" y1="147.289" x2="7.16" y2="145.62"/>
<polyline class="st0" points="36.624,115.708 37.394,116.157 38.164,116.735 "/>
<polyline class="st0" points="24.813,124.887 25.134,123.475 25.647,122.062 "/>
<polyline class="st0" points="33.735,120.779 34.57,121.934 35.34,123.218 35.918,124.502 "/>
<line class="st0" x1="38.421" y1="116.542" x2="38.614" y2="116.606"/>
<polyline class="st0" points="38.421,116.542 37.587,115.964 36.816,115.515 "/>
<polyline class="st0" points="35.597,132.911 35.725,132.911 35.853,133.039 36.303,132.654 36.624,132.14 "/>
<line class="st0" x1="36.303" y1="124.309" x2="35.533" y2="122.833"/>
<polyline class="st0" points="35.533,122.833 34.826,121.806 34.12,120.779 "/>
<line class="st0" x1="43.043" y1="117.377" x2="43.043" y2="117.441"/>
<polyline class="st0" points="36.816,115.323 37.651,115.964 38.421,116.542 "/>
<line class="st0" x1="38.421" y1="116.542" x2="38.614" y2="116.606"/>
<polyline class="st0" points="34.441,120.586 34.955,121.742 35.533,122.833 "/>
<line class="st0" x1="36.431" y1="124.245" x2="35.533" y2="122.833"/>
<line class="st0" x1="35.404" y1="133.681" x2="35.276" y2="133.553"/>
<polyline class="st0" points="35.404,133.681 35.404,133.553 35.533,133.36 35.725,133.167 35.853,133.039 "/>
<line class="st0" x1="35.34" y1="134.066" x2="35.404" y2="134.066"/>
<line class="st0" x1="35.404" y1="134.066" x2="35.404" y2="133.681"/>
<polyline class="st0" points="29.113,135.029 29.113,134.644 29.178,134.58 "/>
<polyline class="st0" points="28.728,134.002 28.664,134.002 28.6,134.194 28.793,134.259 29.049,134.387 29.113,134.515 
	29.113,134.644 "/>
<polyline class="st0" points="25.262,122.191 24.877,123.346 24.62,124.502 "/>
<line class="st0" x1="24.556" y1="124.823" x2="24.62" y2="124.502"/>
<polyline class="st0" points="26.225,132.59 26.931,133.296 27.765,133.809 28.6,134.194 "/>
<polyline class="st0" points="24.62,124.502 24.749,123.282 24.813,122.127 "/>
<polyline class="st0" points="17.238,132.397 18.201,132.333 19.1,132.076 20.063,131.691 "/>
<line class="st0" x1="24.556" y1="124.823" x2="24.62" y2="124.502"/>
<line class="st0" x1="24.62" y1="122.255" x2="24.62" y2="121.87"/>
<polyline class="st0" points="17.302,132.205 17.238,132.269 17.238,132.397 16.917,132.461 16.789,132.59 "/>
<line class="st0" x1="35.597" y1="132.911" x2="36.174" y2="132.333"/>
<line class="st0" x1="43.043" y1="117.377" x2="43.043" y2="117.377"/>
<polyline class="st0" points="38.614,116.606 37.715,116.029 36.816,115.323 "/>
<polyline class="st0" points="36.495,124.181 35.404,122.383 34.505,120.458 "/>
<polyline class="st0" points="35.597,132.911 35.34,133.232 35.276,133.553 "/>
<line class="st0" x1="35.276" y1="133.553" x2="35.276" y2="134.13"/>
<line class="st0" x1="29.178" y1="135.029" x2="29.178" y2="134.58"/>
<polyline class="st0" points="29.178,134.58 29.049,134.259 28.921,134.066 28.728,134.002 27.637,133.488 26.674,132.654 "/>
<polyline class="st0" points="24.62,122.255 24.556,123.539 24.299,124.823 "/>
<polyline class="st0" points="19.742,131.627 18.522,132.076 17.302,132.205 17.174,132.205 16.982,132.269 16.789,132.59 "/>
<line class="st0" x1="36.624" y1="115.708" x2="36.624" y2="103.897"/>
<line class="st0" x1="25.647" y1="122.062" x2="25.647" y2="104.218"/>
<line class="st0" x1="33.735" y1="120.779" x2="33.735" y2="104.603"/>
<line class="st0" x1="23.85" y1="120.394" x2="23.85" y2="120.265"/>
<line class="st0" x1="23.85" y1="120.394" x2="23.85" y2="109.866"/>
<polyline class="st0" points="36.816,115.515 36.752,115.643 36.624,115.708 "/>
<line class="st0" x1="34.441" y1="120.586" x2="34.505" y2="120.522"/>
<line class="st0" x1="34.441" y1="120.586" x2="34.441" y2="104.474"/>
<line class="st0" x1="34.441" y1="120.586" x2="34.12" y2="120.779"/>
<line class="st0" x1="34.12" y1="120.779" x2="34.12" y2="104.539"/>
<polyline class="st0" points="33.735,120.779 33.992,120.843 34.12,120.779 "/>
<line class="st0" x1="25.262" y1="122.191" x2="25.262" y2="106.207"/>
<polyline class="st0" points="25.647,122.062 25.455,122.127 25.262,122.191 "/>
<line class="st0" x1="24.813" y1="122.127" x2="24.813" y2="109.931"/>
<line class="st0" x1="25.262" y1="122.191" x2="24.813" y2="122.127"/>
<line class="st0" x1="24.62" y1="121.87" x2="24.62" y2="111.407"/>
<polyline class="st0" points="24.813,122.127 24.684,122.062 24.62,121.87 "/>
<line class="st0" x1="23.85" y1="120.265" x2="23.85" y2="109.353"/>
<line class="st0" x1="36.816" y1="115.515" x2="36.816" y2="103.768"/>
<line class="st0" x1="34.505" y1="120.522" x2="34.505" y2="104.41"/>
<line class="st0" x1="39.448" y1="116.35" x2="39.833" y2="116.478"/>
<line class="st0" x1="11.59" y1="129.894" x2="11.525" y2="129.83"/>
<polyline class="st0" points="11.59,129.894 11.654,129.894 11.718,129.894 "/>
<line class="st0" x1="12.296" y1="130.15" x2="12.296" y2="130.15"/>
<polyline class="st0" points="28.985,135.157 29.049,135.093 29.113,135.029 "/>
<polyline class="st0" points="43.043,117.377 42.465,116.735 41.631,116.157 40.668,115.643 39.577,115.258 "/>
<polyline class="st0" points="39.127,115.579 39.191,115.964 39.448,116.35 "/>
<polyline class="st0" points="44.84,128.867 45.675,128.289 46.316,127.583 "/>
<polyline class="st0" points="45.61,127.84 45.996,127.583 46.252,127.583 46.316,127.583 "/>
<line class="st0" x1="33.478" y1="134.965" x2="33.478" y2="134.965"/>
<polyline class="st0" points="33.478,134.965 34.698,134.644 35.725,134.13 "/>
<polyline class="st0" points="35.404,134.066 35.597,134.066 35.725,134.13 "/>
<polyline class="st0" points="33.414,134.836 33.414,134.836 33.478,134.965 "/>
<polyline class="st0" points="28.985,135.157 30.333,135.286 31.745,135.286 "/>
<polyline class="st0" points="31.745,135.286 31.745,135.222 31.681,135.157 31.617,135.157 "/>
<line class="st0" x1="12.039" y1="130.921" x2="12.103" y2="130.921"/>
<polyline class="st0" points="12.039,130.921 12.809,131.691 13.9,132.397 15.184,132.911 16.661,133.232 "/>
<polyline class="st0" points="12.103,130.921 12.36,130.921 12.745,131.178 "/>
<line class="st0" x1="12.296" y1="130.15" x2="12.296" y2="130.15"/>
<polyline class="st0" points="45.61,127.84 45.225,128.289 44.712,128.674 "/>
<polyline class="st0" points="35.34,134.066 34.441,134.515 33.414,134.836 "/>
<polyline class="st0" points="31.617,135.157 30.397,135.157 29.113,135.029 "/>
<polyline class="st0" points="16.661,133.103 15.377,132.782 14.286,132.333 13.387,131.819 12.745,131.178 "/>
<line class="st0" x1="39.448" y1="116.542" x2="39.448" y2="116.35"/>
<line class="st0" x1="39.833" y1="115.002" x2="39.962" y2="115.066"/>
<line class="st0" x1="39.127" y1="115.579" x2="39.127" y2="116.542"/>
<polyline class="st0" points="23.914,108.005 23.978,107.427 24.299,104.025 "/>
<polyline class="st0" points="24.813,109.931 24.684,110.765 24.684,111.15 24.62,111.343 24.62,111.407 24.363,110.637 
	23.85,109.866 23.85,109.417 23.85,108.903 23.914,108.005 "/>
<polyline class="st0" points="24.813,109.931 25.262,106.207 25.519,104.218 "/>
<polyline class="st0" points="33.414,142.732 32.58,142.539 31.745,142.475 "/>
<polyline class="st0" points="11.782,131.306 12.617,132.076 13.772,132.718 15.056,133.232 16.532,133.553 "/>
<polyline class="st0" points="31.296,135.607 29.884,135.542 28.536,135.35 "/>
<polyline class="st0" points="36.11,134.323 35.212,134.772 34.185,135.157 "/>
<polyline class="st0" points="45.161,129.123 45.931,128.546 46.573,127.968 "/>
<line class="st0" x1="16.532" y1="133.553" x2="16.982" y2="133.617"/>
<line class="st0" x1="11.012" y1="129.637" x2="11.012" y2="129.573"/>
<polyline class="st0" points="43.813,117.762 43.235,116.927 42.401,116.157 41.245,115.515 39.962,115.066 "/>
<line class="st0" x1="43.941" y1="118.083" x2="43.813" y2="117.762"/>
<line class="st0" x1="44.84" y1="129.316" x2="45.161" y2="129.123"/>
<line class="st0" x1="36.11" y1="134.323" x2="36.495" y2="134.13"/>
<line class="st0" x1="11.718" y1="145.62" x2="11.525" y2="145.62"/>
<line class="st0" x1="11.076" y1="144.722" x2="11.718" y2="144.593"/>
<line class="st0" x1="11.525" y1="145.62" x2="11.525" y2="147.225"/>
<line class="st0" x1="32.901" y1="148.509" x2="33.543" y2="149.985"/>
<line class="st0" x1="31.938" y1="150.242" x2="31.745" y2="149.793"/>
<polyline class="st0" points="32.708,148.637 32.708,149.729 33.543,151.526 33.543,149.985 "/>
<line class="st0" x1="46.637" y1="141.255" x2="47.279" y2="141.384"/>
<line class="st0" x1="46.83" y1="142.282" x2="46.637" y2="142.282"/>
<polyline class="st0" points="46.83,142.86 47.279,142.924 47.279,141.384 "/>
<polyline class="st0" points="11.525,146.198 11.076,146.262 11.076,144.722 "/>
<line class="st0" x1="31.938" y1="151.783" x2="31.938" y2="150.242"/>
<polyline class="st0" points="31.745,145.171 32.58,145.364 33.414,145.62 "/>
<line class="st0" x1="46.83" y1="143.887" x2="46.83" y2="142.282"/>
<line class="st0" x1="11.782" y1="146.005" x2="11.525" y2="145.62"/>
<line class="st0" x1="11.076" y1="144.722" x2="11.012" y2="144.272"/>
<line class="st0" x1="33.543" y1="149.985" x2="34.185" y2="149.793"/>
<line class="st0" x1="31.296" y1="150.242" x2="31.938" y2="150.242"/>
<line class="st0" x1="47.279" y1="141.384" x2="47.344" y2="140.999"/>
<line class="st0" x1="46.573" y1="142.668" x2="46.83" y2="142.282"/>
<polyline class="st0" points="16.532,149.793 15.184,149.472 14.029,149.087 13.002,148.573 12.167,147.931 11.525,147.225 "/>
<line class="st0" x1="16.532" y1="149.793" x2="16.532" y2="133.553"/>
<line class="st0" x1="28.857" y1="151.718" x2="28.857" y2="136.056"/>
<polyline class="st0" points="31.938,151.783 30.397,151.847 28.857,151.718 "/>
<polyline class="st0" points="36.11,150.563 34.955,151.141 33.543,151.526 "/>
<line class="st0" x1="36.11" y1="150.563" x2="36.11" y2="134.323"/>
<line class="st0" x1="45.161" y1="145.364" x2="45.161" y2="129.123"/>
<polyline class="st0" points="46.83,143.887 46.124,144.658 45.161,145.364 "/>
<line class="st0" x1="47.279" y1="142.924" x2="47.344" y2="142.282"/>
<line class="st0" x1="28.857" y1="151.718" x2="16.532" y2="149.793"/>
<line class="st0" x1="45.161" y1="145.364" x2="36.11" y2="150.563"/>
<line class="st0" x1="11.076" y1="146.262" x2="11.012" y2="145.62"/>
<line class="st0" x1="47.344" y1="142.282" x2="47.344" y2="126.684"/>
<line class="st0" x1="11.012" y1="145.62" x2="11.012" y2="129.573"/>
<line class="st0" x1="11.782" y1="146.005" x2="11.718" y2="145.877"/>
<polyline class="st0" points="11.654,144.593 11.204,144.529 11.012,144.272 "/>
<line class="st0" x1="11.782" y1="146.005" x2="11.782" y2="131.306"/>
<polyline class="st0" points="11.782,131.306 11.782,131.113 12.039,130.921 "/>
<line class="st0" x1="11.654" y1="144.593" x2="11.654" y2="129.894"/>
<line class="st0" x1="11.91" y1="129.958" x2="11.91" y2="130.985"/>
<polyline class="st0" points="11.59,129.894 11.204,129.83 11.012,129.637 "/>
<line class="st0" x1="11.012" y1="129.637" x2="11.012" y2="144.272"/>
<line class="st0" x1="11.718" y1="131.178" x2="11.718" y2="145.877"/>
<line class="st0" x1="12.296" y1="130.15" x2="12.296" y2="130.921"/>
<line class="st0" x1="11.718" y1="144.529" x2="11.654" y2="144.593"/>
<line class="st0" x1="33.478" y1="149.6" x2="33.414" y2="149.472"/>
<line class="st0" x1="46.702" y1="141.255" x2="46.637" y2="141.255"/>
<polyline class="st0" points="32.708,148.637 32.772,148.381 32.901,148.509 "/>
<line class="st0" x1="32.901" y1="148.509" x2="33.414" y2="148.316"/>
<polyline class="st0" points="33.414,143.63 32.58,143.374 31.745,143.245 "/>
<polyline class="st0" points="31.745,144.144 32.58,144.337 33.414,144.593 "/>
<line class="st0" x1="32.772" y1="148.381" x2="33.414" y2="148.188"/>
<polyline class="st0" points="34.185,149.793 33.735,149.793 33.478,149.6 "/>
<line class="st0" x1="33.414" y1="149.472" x2="33.414" y2="149.408"/>
<polyline class="st0" points="31.745,149.985 31.617,150.178 31.296,150.242 "/>
<polyline class="st0" points="47.344,140.999 47.151,141.191 46.702,141.255 "/>
<line class="st0" x1="46.573" y1="142.668" x2="46.637" y2="142.539"/>
<line class="st0" x1="31.296" y1="135.607" x2="31.296" y2="150.242"/>
<line class="st0" x1="34.185" y1="149.793" x2="34.185" y2="135.157"/>
<line class="st0" x1="46.573" y1="127.968" x2="46.573" y2="142.668"/>
<line class="st0" x1="47.344" y1="140.999" x2="47.344" y2="126.684"/>
<line class="st0" x1="46.702" y1="127.069" x2="46.702" y2="141.255"/>
<line class="st0" x1="33.414" y1="149.472" x2="33.414" y2="134.836"/>
<line class="st0" x1="33.478" y1="134.965" x2="33.478" y2="149.6"/>
<polyline class="st0" points="31.745,135.286 31.617,135.478 31.296,135.607 "/>
<polyline class="st0" points="46.316,127.583 46.573,127.775 46.573,127.968 "/>
<polyline class="st0" points="34.185,135.157 33.799,135.157 33.478,134.965 "/>
<line class="st0" x1="46.445" y1="127.647" x2="46.445" y2="127.198"/>
<line class="st0" x1="33.414" y1="149.408" x2="33.414" y2="134.836"/>
<line class="st0" x1="31.745" y1="149.985" x2="31.745" y2="135.286"/>
<line class="st0" x1="46.637" y1="142.539" x2="46.637" y2="127.84"/>
<line class="st0" x1="46.06" y1="127.583" x2="46.06" y2="127.454"/>
<polyline class="st0" points="28.536,135.35 28.664,135.478 28.793,135.671 28.857,136.056 "/>
<line class="st0" x1="43.235" y1="117.633" x2="43.941" y2="118.083"/>
<line class="st0" x1="43.941" y1="118.083" x2="43.813" y2="117.954"/>
<line class="st0" x1="44.327" y1="128.417" x2="44.84" y2="129.316"/>
<polyline class="st0" points="44.904,128.995 44.969,129.188 44.84,129.316 "/>
<line class="st0" x1="36.495" y1="134.13" x2="35.853" y2="133.039"/>
<polyline class="st0" points="29.049,135.093 29.049,135.029 29.113,134.644 "/>
<line class="st0" x1="28.6" y1="134.194" x2="28.343" y2="135.35"/>
<polyline class="st0" points="28.343,135.35 28.536,135.414 28.728,135.542 28.857,135.863 28.857,136.056 "/>
<polyline class="st0" points="28.985,135.157 28.793,135.286 28.536,135.35 "/>
<line class="st0" x1="16.982" y1="133.617" x2="17.238" y2="132.397"/>
<polyline class="st0" points="16.982,133.617 16.789,133.553 16.661,133.424 16.661,133.232 "/>
<polyline class="st0" points="36.495,134.13 36.239,134.194 35.982,134.194 35.725,134.13 "/>
<line class="st0" x1="35.404" y1="133.681" x2="35.597" y2="134.066"/>
<line class="st0" x1="43.043" y1="117.377" x2="43.813" y2="117.954"/>
<line class="st0" x1="44.519" y1="128.353" x2="44.904" y2="128.995"/>
<line class="st0" x1="16.661" y1="133.232" x2="16.789" y2="132.59"/>
<line class="st0" x1="22.245" y1="121.742" x2="23.657" y2="120.394"/>
<polyline class="st0" points="22.309,121.934 22.887,121.356 23.465,120.843 23.85,120.394 "/>
<line class="st0" x1="23.657" y1="120.394" x2="23.85" y2="120.201"/>
<line class="st0" x1="44.327" y1="118.917" x2="43.941" y2="118.083"/>
<line class="st0" x1="36.495" y1="134.13" x2="44.84" y2="129.316"/>
<line class="st0" x1="16.982" y1="133.617" x2="28.343" y2="135.35"/>
<polyline class="st0" points="47.921,146.904 49.205,146.07 50.168,145.043 50.874,143.951 51.195,142.86 51.195,141.705 
	50.81,140.549 "/>
<polyline class="st0" points="50.81,140.549 47.536,133.424 47.344,133.167 "/>
<line class="st0" x1="11.012" y1="140.678" x2="10.434" y2="140.999"/>
<polyline class="st0" points="10.434,140.999 9.214,141.897 8.187,142.86 7.546,143.951 7.16,145.043 7.16,146.198 7.546,147.289 
	8.187,148.381 9.214,149.343 10.434,150.242 11.975,150.948 13.644,151.526 15.505,151.911 "/>
<line class="st0" x1="15.505" y1="151.911" x2="27.894" y2="153.837"/>
<polyline class="st0" points="27.894,153.837 29.82,154.029 31.809,154.029 33.735,153.837 35.597,153.452 37.33,152.874 
	38.806,152.168 "/>
<line class="st0" x1="38.806" y1="152.168" x2="47.921" y2="146.904"/>
<line class="st0" x1="23.85" y1="115.323" x2="21.667" y2="114.039"/>
<polyline class="st0" points="23.85,117.441 23.657,116.799 23.85,116.157 "/>
<polyline class="st0" points="21.667,114.039 22.759,113.397 23.85,114.039 "/>
<line class="st0" x1="36.816" y1="109.289" x2="37.779" y2="107.299"/>
<polyline class="st0" points="38.293,109.545 39.256,109.931 39.897,110.444 40.347,111.022 40.475,111.664 40.218,112.306 
	39.705,112.883 38.935,113.333 37.908,113.654 36.816,113.782 "/>
<polyline class="st0" points="37.779,107.299 39.256,107.491 38.293,109.545 "/>
<polyline class="st0" points="27.83,125.336 27.252,124.758 26.995,124.052 27.124,123.346 27.637,122.704 28.472,122.191 
	29.563,121.87 30.782,121.742 31.938,121.806 33.029,122.127 33.928,122.64 34.505,123.282 34.698,123.924 34.505,124.63 
	33.928,125.272 "/>
<line class="st0" x1="43.749" y1="118.853" x2="45.289" y2="119.11"/>
<polyline class="st0" points="43.364,119.687 42.658,120.265 41.759,120.65 40.604,120.907 39.448,120.907 38.293,120.715 
	37.33,120.329 36.56,119.816 36.174,119.174 36.11,118.468 36.431,117.826 37.073,117.248 37.972,116.799 39.063,116.542 
	40.218,116.478 41.374,116.671 42.401,116.991 43.171,117.569 43.685,118.147 43.749,118.853 "/>
<line class="st0" x1="44.07" y1="119.816" x2="43.364" y2="119.687"/>
<line class="st0" x1="14.992" y1="123.025" x2="14.542" y2="123.09"/>
<polyline class="st0" points="14.606,122.191 14.735,121.485 15.184,120.843 16.019,120.329 17.046,119.944 18.201,119.816 
	19.421,119.88 20.512,120.201 21.411,120.65 22.053,121.228 22.309,121.934 22.181,122.64 21.667,123.218 20.897,123.796 
	19.806,124.117 "/>
<line class="st0" x1="14.992" y1="123.025" x2="15.313" y2="123.346"/>
<line class="st0" x1="13.002" y1="122.383" x2="14.606" y2="122.191"/>
<line class="st0" x1="23.85" y1="119.559" x2="23.657" y2="118.917"/>
<line class="st0" x1="23.657" y1="117.312" x2="21.539" y2="116.093"/>
<line class="st0" x1="39.32" y1="109.481" x2="39.127" y2="109.866"/>
<polyline class="st0" points="40.475,113.654 40.283,114.231 39.897,114.809 39.256,115.258 38.421,115.579 37.458,115.836 "/>
<polyline class="st0" points="38.678,122.897 37.651,122.576 36.816,122.127 36.239,121.485 36.046,120.843 "/>
<line class="st0" x1="22.245" y1="124.502" x2="22.309" y2="124.117"/>
<line class="st0" x1="39.32" y1="109.61" x2="39.32" y2="109.481"/>
<line class="st0" x1="21.475" y1="116.157" x2="21.539" y2="116.093"/>
<polyline class="st0" points="38.357,123.09 37.522,122.769 36.752,122.255 36.239,121.613 36.046,120.843 "/>
<polyline class="st0" points="40.475,113.654 40.411,114.103 40.218,114.552 39.641,115.258 38.806,115.708 37.779,116.029 "/>
<line class="st0" x1="39.32" y1="109.61" x2="39.191" y2="109.931"/>
<line class="st0" x1="23.657" y1="117.505" x2="21.411" y2="116.221"/>
<line class="st0" x1="23.85" y1="119.623" x2="23.657" y2="118.917"/>
<line class="st0" x1="22.245" y1="124.502" x2="22.309" y2="124.117"/>
<line class="st0" x1="21.667" y1="115.643" x2="21.667" y2="114.039"/>
<line class="st0" x1="39.256" y1="107.491" x2="39.256" y2="109.096"/>
<line class="st0" x1="43.364" y1="120.201" x2="43.364" y2="119.687"/>
<line class="st0" x1="14.992" y1="123.282" x2="14.992" y2="123.025"/>
<line class="st0" x1="23.657" y1="118.917" x2="23.657" y2="116.799"/>
<line class="st0" x1="40.475" y1="113.654" x2="40.475" y2="111.535"/>
<line class="st0" x1="26.995" y1="125.208" x2="26.995" y2="123.988"/>
<line class="st0" x1="34.698" y1="125.015" x2="34.698" y2="123.988"/>
<line class="st0" x1="36.046" y1="120.843" x2="36.046" y2="118.725"/>
<line class="st0" x1="43.749" y1="118.853" x2="43.749" y2="118.725"/>
<line class="st0" x1="14.606" y1="122.191" x2="14.606" y2="122.062"/>
<line class="st0" x1="22.309" y1="124.117" x2="22.309" y2="122.062"/>
<line class="st0" x1="21.539" y1="116.093" x2="21.667" y2="115.643"/>
<line class="st0" x1="39.32" y1="109.481" x2="39.256" y2="109.096"/>
<line class="st0" x1="36.816" y1="108.775" x2="37.073" y2="108.775"/>
<line class="st0" x1="21.667" y1="115.643" x2="13.13" y2="120.522"/>
<polyline class="st0" points="43.877,112.049 43.364,111.279 42.658,110.572 41.695,109.931 40.539,109.417 39.256,109.096 "/>
<line class="st0" x1="43.941" y1="112.37" x2="43.877" y2="112.049"/>
<line class="st0" x1="43.941" y1="112.37" x2="43.941" y2="112.37"/>
<line class="st0" x1="46.637" y1="118.019" x2="43.877" y2="112.049"/>
<polyline class="st0" points="12.873,121.164 13.066,120.907 13.13,120.522 12.424,121.035 11.846,121.485 "/>
<line class="st0" x1="46.573" y1="118.083" x2="43.941" y2="112.37"/>
<polyline class="st0" points="43.941,112.37 43.685,111.985 43.364,111.599 42.914,111.214 42.401,110.765 41.759,110.444 
	40.989,110.123 40.218,109.802 39.32,109.61 "/>
<polyline class="st0" points="21.475,116.157 12.873,121.164 12.039,121.677 "/>
<line class="st0" x1="13.13" y1="116.35" x2="23.85" y2="110.187"/>
<polyline class="st0" points="36.816,104.603 38.421,104.731 39.897,105.052 41.245,105.566 42.401,106.207 43.3,106.978 
	43.877,107.812 "/>
<polyline class="st0" points="47.151,115.002 47.408,115.836 47.344,116.799 46.894,117.633 46.188,118.468 45.225,119.174 "/>
<line class="st0" x1="45.225" y1="119.174" x2="36.11" y2="124.373"/>
<polyline class="st0" points="36.11,124.373 34.891,124.951 33.543,125.4 32.002,125.593 30.461,125.657 28.921,125.529 "/>
<line class="st0" x1="28.921" y1="125.529" x2="16.468" y2="123.603"/>
<polyline class="st0" points="16.468,123.603 15.056,123.282 13.708,122.769 12.617,122.127 11.782,121.356 11.204,120.522 
	10.948,119.623 11.012,118.725 11.461,117.89 12.167,117.056 13.13,116.35 "/>
<line class="st0" x1="38.806" y1="125.978" x2="47.921" y2="120.715"/>
<line class="st0" x1="23.978" y1="106.978" x2="10.434" y2="114.809"/>
<polyline class="st0" points="10.434,114.809 9.15,115.643 8.187,116.671 7.546,117.698 7.16,118.853 7.16,120.008 7.546,121.1 
	8.187,122.191 9.15,123.154 10.434,124.052 11.975,124.758 13.644,125.336 15.505,125.721 "/>
<line class="st0" x1="15.505" y1="125.721" x2="27.894" y2="127.647"/>
<polyline class="st0" points="27.894,127.647 29.82,127.84 31.809,127.84 33.735,127.647 35.597,127.262 37.33,126.684 
	38.806,125.978 "/>
<polyline class="st0" points="47.921,120.715 49.141,119.816 50.168,118.853 50.81,117.762 51.195,116.671 51.195,115.515 
	50.81,114.36 "/>
<line class="st0" x1="50.81" y1="114.36" x2="47.536" y2="107.299"/>
<polyline class="st0" points="47.536,107.299 46.83,106.207 45.803,105.18 44.519,104.282 42.979,103.576 41.245,102.998 
	39.32,102.613 "/>
<line class="st0" x1="43.877" y1="107.812" x2="47.151" y2="115.002"/>
<line class="st0" x1="13.13" y1="116.35" x2="13.13" y2="120.522"/>
<line class="st0" x1="43.877" y1="112.049" x2="43.877" y2="107.812"/>
<polyline class="st0" points="15.505,130.985 13.515,130.536 11.718,129.894 10.177,129.123 8.894,128.096 7.931,127.069 
	7.353,125.85 7.16,124.63 "/>
<polyline class="st0" points="51.195,121.356 51.067,122.448 50.553,123.539 49.719,124.566 48.627,125.465 "/>
<line class="st0" x1="41.502" y1="129.637" x2="38.806" y2="131.178"/>
<polyline class="st0" points="38.806,131.178 37.33,131.948 35.597,132.461 33.735,132.911 31.809,133.103 29.82,133.103 
	27.894,132.846 "/>
<line class="st0" x1="27.894" y1="132.846" x2="15.505" y2="130.985"/>
<line class="st0" x1="47.151" y1="117.184" x2="47.151" y2="115.002"/>
<line class="st0" x1="38.806" y1="131.178" x2="38.806" y2="128.546"/>
<line class="st0" x1="47.921" y1="122.897" x2="47.921" y2="120.715"/>
<line class="st0" x1="38.806" y1="128.546" x2="38.806" y2="125.978"/>
<line class="st0" x1="15.505" y1="130.985" x2="15.505" y2="125.721"/>
<line class="st0" x1="27.894" y1="132.846" x2="27.894" y2="127.647"/>
<line class="st0" x1="51.195" y1="116.093" x2="51.195" y2="121.356"/>
<line class="st0" x1="7.16" y1="119.431" x2="7.16" y2="124.63"/>
<polyline class="st0" points="47.023,122.833 47.344,122.704 47.665,122.769 "/>
<polyline class="st0" points="47.023,122.833 47.408,123.154 47.536,123.603 47.408,123.988 47.023,124.373 47.408,124.758 
	47.729,125.208 47.921,125.786 47.857,126.235 47.665,126.556 "/>
<polyline class="st0" points="43.107,129.123 43.3,128.867 43.364,128.417 43.171,127.84 42.85,127.326 42.465,127.005 "/>
<line class="st0" x1="47.023" y1="124.373" x2="42.465" y2="127.005"/>
<polyline class="st0" points="39.063,129.123 38.87,128.931 38.806,128.546 38.935,127.968 39.256,127.39 39.705,127.005 "/>
<polyline class="st0" points="42.465,127.005 41.823,127.262 41.117,127.326 40.347,127.262 39.705,127.005 "/>
<polyline class="st0" points="15.89,111.664 15.569,111.535 15.248,111.599 "/>
<polyline class="st0" points="19.806,108.968 20.063,108.903 20.448,109.032 "/>
<polyline class="st0" points="47.665,122.769 48.05,123.025 48.435,123.475 48.756,123.988 48.82,124.63 48.756,125.272 
	48.435,125.786 48.05,126.235 47.665,126.556 "/>
<line class="st0" x1="47.665" y1="126.556" x2="43.107" y2="129.123"/>
<polyline class="st0" points="43.107,129.123 42.144,129.509 41.117,129.637 40.09,129.509 39.063,129.123 "/>
<polyline class="st0" points="14.286,112.627 14.735,111.985 15.248,111.599 "/>
<line class="st0" x1="15.248" y1="111.599" x2="19.806" y2="108.968"/>
<polyline class="st0" points="19.806,108.968 20.576,108.647 21.346,108.518 "/>
<line class="st0" x1="39.705" y1="127.005" x2="47.023" y2="122.833"/>
<polyline class="st0" points="9.6,36.368 9.407,35.983 9.6,35.919 "/>
<polyline class="st0" points="9.6,35.855 9.15,36.112 9.6,35.598 "/>
<line class="st0" x1="9.6" y1="37.01" x2="9.15" y2="36.112"/>
<polyline class="st0" points="9.6,44.521 9.279,44.392 9.279,44.328 9.535,43.558 9.6,43.686 "/>
<polyline class="st0" points="9.471,43.75 9.279,43.558 9.471,43.301 "/>
<line class="st0" x1="9.214" y1="43.108" x2="9.15" y2="42.787"/>
<line class="st0" x1="9.343" y1="42.98" x2="9.214" y2="43.108"/>
<polyline class="st0" points="8.958,43.879 9.086,43.622 9.15,43.429 9.214,43.108 "/>
<polyline class="st0" points="9.279,43.558 8.958,43.879 9.535,44.97 "/>
<line class="st0" x1="9.6" y1="44.97" x2="9.535" y2="44.97"/>
<line class="st0" x1="9.6" y1="45.098" x2="9.535" y2="44.97"/>
<polyline class="st0" points="9.6,43.558 9.214,42.787 9.15,42.787 "/>
<polyline class="st0" points="9.6,54.342 9.279,54.213 9.279,54.149 9.535,53.379 9.6,53.571 "/>
<polyline class="st0" points="9.471,53.571 9.279,53.379 9.471,53.122 "/>
<line class="st0" x1="9.214" y1="52.929" x2="9.15" y2="52.609"/>
<line class="st0" x1="9.343" y1="52.801" x2="9.214" y2="52.929"/>
<polyline class="st0" points="8.958,53.7 9.086,53.443 9.15,53.25 9.214,52.929 "/>
<polyline class="st0" points="9.279,53.379 8.958,53.7 9.535,54.791 "/>
<line class="st0" x1="9.6" y1="54.791" x2="9.535" y2="54.791"/>
<line class="st0" x1="9.6" y1="54.919" x2="9.535" y2="54.791"/>
<polyline class="st0" points="9.6,53.379 9.214,52.609 9.15,52.609 "/>
<polyline class="st0" points="9.535,50.426 9.535,50.49 9.6,50.554 "/>
<polyline class="st0" points="9.535,50.49 9.407,50.683 9.343,50.875 9.279,51.132 9.407,51.517 9.6,51.71 "/>
<polyline class="st0" points="9.407,50.683 9.279,50.619 9.471,50.298 "/>
<line class="st0" x1="9.279" y1="50.619" x2="8.958" y2="50.875"/>
<polyline class="st0" points="9.6,51.902 9.343,51.517 8.958,50.875 "/>
<polyline class="st0" points="9.6,50.49 9.214,49.977 9.086,49.848 9.022,49.913 "/>
<line class="st0" x1="9.086" y1="49.848" x2="9.022" y2="49.913"/>
<polyline class="st0" points="9.214,49.977 9.15,50.041 9.022,49.913 "/>
<polyline class="st0" points="9.279,50.105 9.214,50.169 9.15,50.041 "/>
<line class="st0" x1="8.958" y1="50.875" x2="9.214" y2="50.169"/>
<polyline class="st0" points="9.535,46.831 9.471,46.896 9.6,46.96 "/>
<polyline class="st0" points="9.6,47.281 9.407,47.152 9.471,46.896 "/>
<polyline class="st0" points="9.6,47.409 9.343,47.538 9.6,47.666 "/>
<polyline class="st0" points="9.6,48.051 9.343,47.666 9.343,47.538 "/>
<polyline class="st0" points="9.407,47.281 9.407,46.96 9.471,46.575 "/>
<line class="st0" x1="9.407" y1="47.538" x2="9.407" y2="47.281"/>
<line class="st0" x1="9.022" y1="45.676" x2="8.958" y2="45.74"/>
<polyline class="st0" points="9.15,46.189 9.15,45.997 8.958,45.74 "/>
<line class="st0" x1="9.407" y1="46.061" x2="9.15" y2="46.189"/>
<polyline class="st0" points="9.022,47.538 9.022,47.281 9.086,46.896 9.15,46.446 9.15,46.189 "/>
<line class="st0" x1="9.407" y1="47.281" x2="9.022" y2="47.538"/>
<polyline class="st0" points="9.407,48.693 9.15,48.115 9.022,47.538 "/>
<line class="st0" x1="9.471" y1="48.629" x2="9.407" y2="48.693"/>
<line class="st0" x1="9.6" y1="48.886" x2="9.407" y2="48.693"/>
<polyline class="st0" points="9.343,47.987 9.407,48.372 9.6,48.757 "/>
<polyline class="st0" points="9.343,47.987 9.343,47.73 9.407,47.73 "/>
<line class="st0" x1="9.6" y1="48.244" x2="9.343" y2="47.73"/>
<polyline class="st0" points="9.471,46.575 9.471,46.767 9.6,46.831 "/>
<polyline class="st0" points="9.022,45.676 9.214,45.869 9.407,46.061 9.471,46.318 9.471,46.575 "/>
<line class="st0" x1="8.958" y1="45.74" x2="9.022" y2="45.676"/>
<polyline class="st0" points="9.343,40.798 9.279,40.862 9.6,41.054 "/>
<polyline class="st0" points="9.6,41.247 9.471,41.183 9.279,40.862 "/>
<polyline class="st0" points="9.471,40.348 9.343,40.22 9.407,40.027 "/>
<polyline class="st0" points="9.6,42.081 9.407,41.76 9.214,41.311 "/>
<line class="st0" x1="9.279" y1="40.798" x2="9.6" y2="40.926"/>
<polyline class="st0" points="9.471,40.156 9.407,40.477 9.279,40.798 "/>
<polyline class="st0" points="9.471,40.156 9.214,39.642 9.15,39.642 9.15,39.706 "/>
<line class="st0" x1="9.214" y1="39.642" x2="9.15" y2="39.706"/>
<polyline class="st0" points="8.958,40.477 9.15,40.091 9.15,39.706 "/>
<polyline class="st0" points="9.343,40.22 8.958,40.477 9.6,41.632 "/>
<line class="st0" x1="9.6" y1="41.889" x2="9.214" y2="41.311"/>
<polyline class="st0" points="9.407,37.781 9.279,37.781 9.279,37.716 "/>
<polyline class="st0" points="9.279,37.781 8.894,38.102 8.894,37.652 9.6,37.845 "/>
<line class="st0" x1="8.894" y1="38.102" x2="9.6" y2="37.973"/>
<polyline class="st0" points="9.535,34.314 9.214,34.507 9.6,34.828 "/>
<polyline class="st0" points="9.214,34.507 9.214,33.287 9.535,33.672 9.535,34.699 9.6,34.764 "/>
<line class="st0" x1="9.471" y1="35.983" x2="9.6" y2="35.919"/>
<line class="st0" x1="9.6" y1="60.247" x2="9.6" y2="33.351"/>
<polyline class="st0" points="7.546,28.986 8.508,31.041 8.508,57.23 "/>
<line class="st0" x1="9.6" y1="33.351" x2="10.562" y2="35.406"/>
<polyline class="st0" points="10.562,35.406 10.562,93.048 9.921,91.7 "/>
<line class="st0" x1="7.546" y1="57.359" x2="7.546" y2="28.986"/>
<polyline class="st0" points="8.508,31.041 9.279,31.362 9.856,31.811 10.113,32.324 9.985,32.838 9.6,33.351 "/>
<polyline class="st0" points="32.451,39.129 32.516,38.743 32.837,38.422 33.414,38.23 34.056,38.23 34.634,38.422 34.955,38.743 
	"/>
<polyline class="st0" points="50.425,29.821 49.911,29.564 49.59,29.243 49.59,28.922 49.911,28.601 50.425,28.409 51.067,28.345 
	"/>
<polyline class="st0" points="41.053,15.121 40.218,15.378 39.32,15.442 38.421,15.314 37.651,14.993 37.137,14.544 "/>
<polyline class="st0" points="10.562,93.048 9.214,92.15 8.187,91.123 7.481,90.032 7.16,88.876 7.225,87.721 "/>
<line class="st0" x1="51.067" y1="28.345" x2="51.067" y2="85.988"/>
<polyline class="st0" points="51.067,85.988 50.81,86.758 50.425,87.464 "/>
<line class="st0" x1="50.425" y1="87.464" x2="50.425" y2="29.821"/>
<line class="st0" x1="34.955" y1="38.743" x2="34.955" y2="96.386"/>
<polyline class="st0" points="34.955,96.386 33.735,96.643 32.451,96.771 "/>
<line class="st0" x1="32.451" y1="96.771" x2="32.451" y2="39.129"/>
<line class="st0" x1="50.425" y1="86.052" x2="51.067" y2="85.988"/>
<polyline class="st0" points="34.955,96.386 34.57,96.065 33.992,95.873 33.35,95.937 32.772,96.13 32.451,96.451 "/>
<line class="st0" x1="15.698" y1="26.226" x2="18.779" y2="20.834"/>
<line class="st0" x1="13.194" y1="27.703" x2="31.296" y2="17.24"/>
<line class="st0" x1="21.924" y1="22.632" x2="18.779" y2="20.834"/>
<polyline class="st0" points="10.755,26.419 10.883,26.419 11.012,26.483 "/>
<line class="st0" x1="29.178" y1="18.459" x2="29.178" y2="15.956"/>
<line class="st0" x1="29.178" y1="15.763" x2="29.178" y2="15.507"/>
<polyline class="st0" points="29.178,15.956 29.113,15.892 29.178,15.827 "/>
<polyline class="st0" points="9.856,26.483 9.985,26.419 10.177,26.483 "/>
<polyline class="st0" points="14.992,36.818 14.863,36.882 14.671,36.882 "/>
<polyline class="st0" points="15.762,36.561 15.634,36.625 15.505,36.689 "/>
<polyline class="st0" points="28.215,38.615 28.086,38.551 28.086,38.487 "/>
<polyline class="st0" points="28.664,39.064 28.536,39 28.472,38.936 "/>
<polyline class="st0" points="38.229,37.46 38.293,37.524 38.164,37.588 "/>
<polyline class="st0" points="38.229,36.946 38.293,37.01 38.293,37.074 "/>
<polyline class="st0" points="47.6,31.682 47.472,31.747 47.279,31.682 "/>
<polyline class="st0" points="48.499,31.682 48.371,31.682 48.178,31.682 "/>
<polyline class="st0" points="50.81,26.034 50.938,26.098 51.002,26.162 "/>
<polyline class="st0" points="49.975,25.841 50.168,25.841 50.296,25.905 "/>
<polyline class="st0" points="46.894,18.523 46.83,18.652 46.702,18.716 "/>
<polyline class="st0" points="47.279,18.074 47.279,18.203 47.151,18.267 "/>
<polyline class="st0" points="29.178,15.507 29.178,15.378 29.242,15.314 "/>
<line class="st0" x1="38.293" y1="37.074" x2="38.293" y2="37.46"/>
<line class="st0" x1="38.293" y1="94.717" x2="38.293" y2="94.653"/>
<line class="st0" x1="47.279" y1="49.784" x2="47.279" y2="89.325"/>
<line class="st0" x1="47.279" y1="31.682" x2="47.279" y2="48.5"/>
<polyline class="st0" points="47.6,89.39 47.472,89.39 47.279,89.325 "/>
<line class="st0" x1="47.6" y1="89.39" x2="47.6" y2="49.913"/>
<line class="st0" x1="47.6" y1="48.629" x2="47.6" y2="31.682"/>
<line class="st0" x1="48.178" y1="49.142" x2="48.178" y2="31.682"/>
<line class="st0" x1="48.178" y1="49.913" x2="48.178" y2="89.325"/>
<polyline class="st0" points="48.499,89.325 48.371,89.39 48.178,89.325 "/>
<line class="st0" x1="48.499" y1="89.325" x2="48.499" y2="31.682"/>
<line class="st0" x1="47.151" y1="18.267" x2="47.151" y2="20.706"/>
<line class="st0" x1="46.894" y1="20.064" x2="46.894" y2="18.523"/>
<line class="st0" x1="46.702" y1="18.716" x2="46.702" y2="19.679"/>
<line class="st0" x1="38.164" y1="37.588" x2="38.164" y2="95.231"/>
<line class="st0" x1="38.164" y1="95.231" x2="38.293" y2="95.167"/>
<line class="st0" x1="28.664" y1="96.707" x2="28.664" y2="39.064"/>
<line class="st0" x1="28.472" y1="38.936" x2="28.472" y2="96.579"/>
<polyline class="st0" points="28.664,96.707 28.536,96.643 28.472,96.579 "/>
<line class="st0" x1="28.215" y1="96.322" x2="28.215" y2="38.615"/>
<line class="st0" x1="28.215" y1="96.322" x2="28.086" y2="96.194"/>
<line class="st0" x1="14.671" y1="36.882" x2="14.671" y2="94.525"/>
<polyline class="st0" points="14.992,94.461 14.863,94.525 14.671,94.525 "/>
<line class="st0" x1="14.992" y1="94.461" x2="14.992" y2="36.818"/>
<line class="st0" x1="15.505" y1="36.689" x2="15.505" y2="94.332"/>
<polyline class="st0" points="15.762,94.204 15.634,94.268 15.505,94.332 "/>
<line class="st0" x1="15.762" y1="94.204" x2="15.762" y2="36.561"/>
<line class="st0" x1="29.113" y1="18.459" x2="29.113" y2="15.892"/>
<line class="st0" x1="38.293" y1="94.653" x2="38.293" y2="55.754"/>
<line class="st0" x1="38.293" y1="53.892" x2="38.293" y2="37.01"/>
<line class="st0" x1="29.178" y1="15.442" x2="29.178" y2="15.827"/>
<line class="st0" x1="47.279" y1="20.899" x2="47.279" y2="18.138"/>
<line class="st0" x1="38.293" y1="37.524" x2="38.293" y2="54.984"/>
<line class="st0" x1="38.293" y1="55.818" x2="38.293" y2="95.167"/>
<line class="st0" x1="28.086" y1="38.487" x2="28.086" y2="96.194"/>
<line class="st0" x1="13.194" y1="27.703" x2="11.012" y2="26.483"/>
<line class="st0" x1="29.178" y1="15.956" x2="31.296" y2="17.24"/>
<polyline class="st0" points="15.762,36.561 15.826,36.304 16.596,36.433 "/>
<line class="st0" x1="16.917" y1="36.497" x2="22.823" y2="37.395"/>
<line class="st0" x1="23.144" y1="37.46" x2="25.647" y2="37.845"/>
<polyline class="st0" points="25.904,37.909 28.215,38.23 28.086,38.487 "/>
<polyline class="st0" points="38.229,36.946 37.908,36.754 38.549,36.368 "/>
<polyline class="st0" points="46.381,31.875 47.023,31.49 47.279,31.682 "/>
<polyline class="st0" points="49.975,25.841 49.59,25.905 47.921,22.311 "/>
<polyline class="st0" points="47.793,21.99 46.252,18.78 46.702,18.716 "/>
<line class="st0" x1="15.826" y1="81.944" x2="15.826" y2="85.089"/>
<line class="st0" x1="15.826" y1="85.281" x2="15.826" y2="87.336"/>
<line class="st0" x1="15.826" y1="87.528" x2="15.826" y2="89.967"/>
<line class="st0" x1="15.826" y1="90.224" x2="15.826" y2="91.508"/>
<line class="st0" x1="27.445" y1="95.744" x2="28.086" y2="95.873"/>
<polyline class="st0" points="15.826,91.7 15.826,93.947 18.394,94.396 "/>
<line class="st0" x1="21.346" y1="94.846" x2="26.931" y2="95.68"/>
<line class="st0" x1="18.715" y1="94.396" x2="21.09" y2="94.782"/>
<line class="st0" x1="15.826" y1="68.592" x2="15.826" y2="73.406"/>
<line class="st0" x1="15.826" y1="52.801" x2="15.826" y2="55.369"/>
<line class="st0" x1="15.826" y1="51.71" x2="15.826" y2="52.609"/>
<line class="st0" x1="15.826" y1="49.271" x2="15.826" y2="51.517"/>
<line class="st0" x1="15.826" y1="46.189" x2="15.826" y2="49.078"/>
<line class="st0" x1="15.826" y1="43.622" x2="15.826" y2="45.997"/>
<line class="st0" x1="15.826" y1="42.531" x2="15.826" y2="43.429"/>
<line class="st0" x1="15.826" y1="39.642" x2="15.826" y2="42.338"/>
<line class="st0" x1="15.826" y1="36.304" x2="15.826" y2="39.45"/>
<line class="st0" x1="15.826" y1="73.663" x2="15.826" y2="76.102"/>
<line class="st0" x1="15.826" y1="65.19" x2="15.826" y2="68.399"/>
<line class="st0" x1="15.826" y1="55.561" x2="15.826" y2="57.615"/>
<line class="st0" x1="15.826" y1="57.808" x2="15.826" y2="59.99"/>
<line class="st0" x1="15.826" y1="60.183" x2="15.826" y2="63.97"/>
<line class="st0" x1="15.826" y1="64.163" x2="15.826" y2="64.741"/>
<line class="st0" x1="15.826" y1="76.359" x2="15.826" y2="78.734"/>
<line class="st0" x1="15.826" y1="79.055" x2="15.826" y2="81.751"/>
<line class="st0" x1="47.023" y1="31.49" x2="47.023" y2="48.308"/>
<line class="st0" x1="47.023" y1="61.467" x2="47.023" y2="63.842"/>
<line class="st0" x1="47.023" y1="49.656" x2="47.023" y2="58.321"/>
<line class="st0" x1="46.06" y1="88.619" x2="47.279" y2="89.325"/>
<line class="st0" x1="47.921" y1="89.646" x2="48.499" y2="89.325"/>
<line class="st0" x1="38.164" y1="95.231" x2="38.806" y2="94.91"/>
<line class="st0" x1="27.83" y1="96.579" x2="28.664" y2="96.707"/>
<line class="st0" x1="14.671" y1="94.525" x2="15.505" y2="94.717"/>
<line class="st0" x1="47.921" y1="89.646" x2="38.806" y2="94.91"/>
<line class="st0" x1="15.762" y1="94.204" x2="15.826" y2="93.947"/>
<line class="st0" x1="27.83" y1="96.579" x2="15.505" y2="94.717"/>
<polyline class="st0" points="29.178,15.827 29.242,15.635 29.178,15.507 "/>
<polyline class="st0" points="10.177,26.483 10.434,26.483 10.755,26.419 "/>
<polyline class="st0" points="15.505,36.689 15.184,36.689 14.992,36.818 "/>
<polyline class="st0" points="28.472,38.936 28.407,38.743 28.215,38.615 "/>
<polyline class="st0" points="38.293,37.074 38.229,37.267 38.229,37.46 "/>
<polyline class="st0" points="48.178,31.682 47.921,31.682 47.6,31.682 "/>
<polyline class="st0" points="50.296,25.905 50.489,26.034 50.81,26.034 "/>
<polyline class="st0" points="47.151,18.267 46.958,18.395 46.894,18.523 "/>
<polyline class="st0" points="48.178,89.325 47.921,89.325 47.6,89.39 "/>
<polyline class="st0" points="28.472,96.579 28.407,96.386 28.215,96.322 "/>
<polyline class="st0" points="15.505,94.332 15.184,94.396 14.992,94.461 "/>
<polyline class="st0" points="47.151,22.054 47.793,21.99 47.857,22.311 "/>
<polyline class="st0" points="47.921,22.311 47.279,22.375 47.151,22.054 "/>
<polyline class="st0" points="7.546,28.986 8.123,28.088 8.894,27.253 9.856,26.483 "/>
<polyline class="st0" points="14.671,36.882 13.194,36.497 11.782,35.983 10.562,35.406 "/>
<polyline class="st0" points="32.451,39.129 30.59,39.193 28.664,39.064 "/>
<polyline class="st0" points="38.164,37.588 36.624,38.23 34.955,38.743 "/>
<polyline class="st0" points="50.425,29.821 49.59,30.784 48.499,31.682 "/>
<polyline class="st0" points="51.002,26.162 51.195,27.253 51.067,28.345 "/>
<polyline class="st0" points="44.648,15.699 45.739,16.405 46.573,17.24 47.279,18.074 "/>
<polyline class="st0" points="29.242,15.314 30.59,14.736 32.002,14.287 33.543,13.966 "/>
<line class="st0" x1="47.921" y1="89.646" x2="47.921" y2="97.67"/>
<line class="st0" x1="27.83" y1="96.579" x2="27.83" y2="104.539"/>
<line class="st0" x1="38.806" y1="94.91" x2="38.806" y2="102.87"/>
<line class="st0" x1="15.505" y1="94.717" x2="15.505" y2="102.677"/>
<line class="st0" x1="51.195" y1="27.446" x2="51.195" y2="93.048"/>
<line class="st0" x1="7.16" y1="88.363" x2="7.16" y2="96.386"/>
<polyline class="st0" points="16.596,36.433 16.789,36.047 17.11,36.112 16.917,36.497 "/>
<polyline class="st0" points="22.823,37.395 23.015,37.074 23.336,37.074 23.144,37.46 "/>
<polyline class="st0" points="25.647,37.845 25.776,37.46 26.097,37.524 25.904,37.909 "/>
<line class="st0" x1="15.826" y1="78.734" x2="17.238" y2="80.275"/>
<line class="st0" x1="15.826" y1="78.734" x2="15.826" y2="79.055"/>
<polyline class="st0" points="17.238,80.596 15.826,79.055 15.954,78.862 "/>
<line class="st0" x1="26.738" y1="75.075" x2="28.086" y2="75.268"/>
<polyline class="st0" points="28.086,75.524 26.738,75.268 26.803,75.075 "/>
<line class="st0" x1="15.826" y1="63.97" x2="17.238" y2="63.842"/>
<line class="st0" x1="15.826" y1="63.97" x2="15.826" y2="64.163"/>
<polyline class="st0" points="17.238,64.099 15.826,64.163 15.954,63.97 "/>
<line class="st0" x1="26.738" y1="61.21" x2="28.086" y2="61.338"/>
<polyline class="st0" points="28.086,61.531 26.738,61.403 26.803,61.21 "/>
<line class="st0" x1="15.826" y1="57.615" x2="17.238" y2="57.68"/>
<line class="st0" x1="15.826" y1="57.615" x2="15.826" y2="57.808"/>
<polyline class="st0" points="17.238,57.872 15.826,57.808 15.954,57.615 "/>
<line class="st0" x1="26.738" y1="62.237" x2="28.086" y2="63.713"/>
<polyline class="st0" points="28.086,64.034 26.738,62.558 26.803,62.301 "/>
<line class="st0" x1="15.826" y1="64.741" x2="17.238" y2="67.051"/>
<line class="st0" x1="15.826" y1="64.741" x2="15.826" y2="65.19"/>
<polyline class="st0" points="17.238,67.501 15.826,65.19 15.954,64.933 "/>
<polyline class="st0" points="28.086,79.055 26.738,78.798 26.803,78.606 "/>
<line class="st0" x1="26.738" y1="78.541" x2="28.086" y2="78.862"/>
<polyline class="st0" points="28.086,83.099 26.738,82.971 26.803,82.778 "/>
<line class="st0" x1="26.738" y1="82.778" x2="28.086" y2="82.842"/>
<polyline class="st0" points="17.238,76.616 15.826,76.359 15.954,76.166 "/>
<line class="st0" x1="15.826" y1="76.102" x2="17.238" y2="76.423"/>
<line class="st0" x1="15.826" y1="76.102" x2="15.826" y2="76.359"/>
<polyline class="st0" points="28.086,72.508 26.738,72.058 26.803,71.866 "/>
<line class="st0" x1="26.738" y1="71.866" x2="28.086" y2="72.251"/>
<polyline class="st0" points="27.573,68.913 27.445,69.234 28.086,69.683 "/>
<line class="st0" x1="28.086" y1="68.014" x2="27.445" y2="69.234"/>
<line class="st0" x1="28.086" y1="67.95" x2="27.573" y2="68.913"/>
<line class="st0" x1="26.738" y1="70.068" x2="28.086" y2="67.437"/>
<polyline class="st0" points="26.867,70.325 27.509,69.041 27.316,69.426 26.738,70.646 26.867,70.325 "/>
<line class="st0" x1="28.086" y1="69.94" x2="27.316" y2="69.426"/>
<line class="st0" x1="27.509" y1="69.041" x2="27.509" y2="69.041"/>
<line class="st0" x1="26.867" y1="70.325" x2="26.867" y2="69.747"/>
<line class="st0" x1="15.826" y1="59.99" x2="17.238" y2="60.119"/>
<line class="st0" x1="15.826" y1="59.99" x2="15.826" y2="60.183"/>
<polyline class="st0" points="17.238,60.376 15.826,60.183 15.954,59.99 "/>
<polyline class="st0" points="20.063,44.392 19.549,46.446 19.357,46.831 19.934,44.521 19.998,44.328 "/>
<polyline class="st0" points="17.174,43.686 17.046,43.879 19.357,46.831 "/>
<line class="st0" x1="19.934" y1="44.521" x2="17.046" y2="43.879"/>
<polyline class="st0" points="18.458,52.737 18.265,53.058 18.971,53.25 19.164,52.929 "/>
<polyline class="st0" points="18.971,52.48 18.843,52.737 18.265,53.058 "/>
<line class="st0" x1="18.971" y1="52.416" x2="18.458" y2="52.737"/>
<line class="st0" x1="18.971" y1="53.25" x2="18.843" y2="52.737"/>
<polyline class="st0" points="24.684,52.801 24.556,53.058 22.887,49.913 "/>
<line class="st0" x1="24.107" y1="51.517" x2="24.042" y2="51.389"/>
<line class="st0" x1="23.208" y1="49.848" x2="23.144" y2="49.72"/>
<line class="st0" x1="22.887" y1="49.913" x2="23.015" y2="49.72"/>
<polyline class="st0" points="18.009,49.271 17.944,49.463 18.201,50.298 24.556,53.058 "/>
<line class="st0" x1="22.887" y1="49.913" x2="17.944" y2="49.463"/>
<line class="st0" x1="19.036" y1="49.206" x2="18.843" y2="49.142"/>
<polyline class="st0" points="18.586,38.422 18.458,38.679 16.789,39.578 "/>
<polyline class="st0" points="18.522,38.358 16.982,39.193 16.789,39.578 "/>
<polyline class="st0" points="19.678,39.77 19.549,39.963 18.458,38.679 "/>
<line class="st0" x1="16.789" y1="39.578" x2="19.549" y2="39.963"/>
<polyline class="st0" points="26.867,40.99 26.803,41.183 18.843,40.091 "/>
<line class="st0" x1="20.961" y1="39.963" x2="20.705" y2="39.963"/>
<line class="st0" x1="19.742" y1="39.835" x2="19.613" y2="39.835"/>
<line class="st0" x1="18.843" y1="40.091" x2="18.907" y2="39.899"/>
<polyline class="st0" points="26.867,40.99 25.84,43.429 25.647,43.75 26.803,41.183 "/>
<polyline class="st0" points="18.843,40.091 21.346,43.879 25.647,43.75 "/>
<polyline class="st0" points="24.235,45.291 24.171,45.483 24.556,46.382 "/>
<polyline class="st0" points="25.647,45.612 25.519,45.804 24.171,45.483 "/>
<line class="st0" x1="25.262" y1="45.355" x2="25.005" y2="45.291"/>
<line class="st0" x1="24.556" y1="46.382" x2="25.519" y2="45.804"/>
<polyline class="st0" points="21.603,43.879 21.539,44.071 21.988,44.777 "/>
<polyline class="st0" points="25.711,43.622 25.711,43.622 25.583,44.007 21.539,44.071 "/>
<polyline class="st0" points="25.711,43.622 25.07,45.098 24.941,45.419 25.583,44.007 "/>
<line class="st0" x1="21.988" y1="44.777" x2="24.941" y2="45.419"/>
<polyline class="st0" points="20.255,44.392 20.191,44.585 19.292,48.308 25.005,47.923 25.134,47.602 "/>
<polyline class="st0" points="23.978,45.227 23.914,45.419 20.191,44.585 "/>
<line class="st0" x1="21.86" y1="44.585" x2="21.796" y2="44.585"/>
<line class="st0" x1="25.005" y1="47.923" x2="23.914" y2="45.419"/>
<line class="st0" x1="24.684" y1="46.575" x2="24.62" y2="46.382"/>
<line class="st0" x1="24.235" y1="45.419" x2="24.171" y2="45.291"/>
<polyline class="st0" points="25.198,47.858 25.07,48.115 19.228,48.5 "/>
<line class="st0" x1="25.134" y1="47.73" x2="25.07" y2="47.794"/>
<line class="st0" x1="19.228" y1="48.5" x2="19.292" y2="48.308"/>
<polyline class="st0" points="26.032,49.656 25.904,49.977 25.07,48.115 "/>
<polyline class="st0" points="19.228,48.5 19.036,49.335 25.904,49.977 "/>
<polyline class="st0" points="24.171,54.663 24.107,54.855 23.721,54.342 "/>
<line class="st0" x1="24.107" y1="54.278" x2="24.042" y2="54.213"/>
<line class="st0" x1="23.721" y1="54.342" x2="23.786" y2="54.149"/>
<polyline class="st0" points="21.154,53.636 21.026,53.828 20.833,54.598 24.107,54.855 "/>
<line class="st0" x1="23.721" y1="54.342" x2="21.026" y2="53.828"/>
<polyline class="st0" points="24.363,54.855 24.235,55.112 20.769,54.791 "/>
<line class="st0" x1="24.235" y1="54.727" x2="24.171" y2="54.727"/>
<line class="st0" x1="20.769" y1="54.791" x2="20.897" y2="54.598"/>
<polyline class="st0" points="25.455,56.332 25.39,56.524 24.235,55.112 "/>
<line class="st0" x1="25.262" y1="55.818" x2="25.262" y2="55.754"/>
<polyline class="st0" points="20.769,54.791 19.934,57.744 23.85,57.936 25.39,56.524 "/>
<polyline class="st0" points="25.647,56.524 25.519,56.717 24.171,57.936 "/>
<polyline class="st0" points="25.583,56.46 24.363,57.615 24.171,57.936 "/>
<polyline class="st0" points="26.674,57.872 26.546,58.065 25.519,56.717 "/>
<line class="st0" x1="24.171" y1="57.936" x2="26.546" y2="58.065"/>
<polyline class="st0" points="24.813,53.122 24.749,53.379 18.33,50.554 "/>
<line class="st0" x1="24.749" y1="52.929" x2="24.684" y2="52.929"/>
<line class="st0" x1="18.33" y1="50.554" x2="18.394" y2="50.362"/>
<polyline class="st0" points="25.39,54.213 25.326,54.47 24.749,53.379 "/>
<line class="st0" x1="25.326" y1="53.828" x2="25.262" y2="53.7"/>
<polyline class="st0" points="18.33,50.554 19.228,53.25 25.326,54.47 "/>
<line class="st0" x1="15.826" y1="43.429" x2="15.826" y2="43.622"/>
<polyline class="st0" points="16.853,43.622 16.725,43.814 15.826,43.622 15.954,43.429 "/>
<polyline class="st0" points="18.65,45.869 18.522,46.125 16.725,43.814 "/>
<line class="st0" x1="17.174" y1="43.75" x2="17.11" y2="43.686"/>
<line class="st0" x1="15.826" y1="45.997" x2="18.522" y2="46.125"/>
<line class="st0" x1="15.826" y1="45.997" x2="15.826" y2="46.189"/>
<polyline class="st0" points="18.779,46.125 18.715,46.318 15.826,46.189 15.954,45.997 "/>
<line class="st0" x1="18.715" y1="45.933" x2="18.586" y2="45.933"/>
<polyline class="st0" points="19.421,46.703 19.485,46.703 19.292,47.088 18.715,46.318 "/>
<polyline class="st0" points="19.485,46.703 18.907,48.95 18.779,49.335 19.292,47.088 "/>
<line class="st0" x1="15.826" y1="49.078" x2="18.779" y2="49.335"/>
<line class="st0" x1="15.826" y1="49.078" x2="15.826" y2="49.271"/>
<polyline class="st0" points="17.752,49.206 17.688,49.399 15.826,49.271 15.954,49.078 "/>
<polyline class="st0" points="18.586,51.261 18.394,51.517 17.688,49.399 "/>
<line class="st0" x1="18.33" y1="50.49" x2="18.265" y2="50.298"/>
<line class="st0" x1="17.944" y1="49.399" x2="17.88" y2="49.206"/>
<line class="st0" x1="15.826" y1="51.517" x2="18.394" y2="51.517"/>
<line class="st0" x1="15.826" y1="51.517" x2="15.826" y2="51.71"/>
<polyline class="st0" points="18.65,51.453 18.522,51.774 15.826,51.71 15.954,51.517 "/>
<line class="st0" x1="18.586" y1="51.389" x2="18.458" y2="51.389"/>
<polyline class="st0" points="18.907,52.223 18.779,52.544 18.522,51.774 "/>
<polyline class="st0" points="15.826,52.609 17.88,52.994 18.779,52.544 "/>
<line class="st0" x1="15.826" y1="52.609" x2="15.826" y2="52.801"/>
<polyline class="st0" points="20.897,53.571 20.833,53.764 15.826,52.801 15.954,52.609 "/>
<line class="st0" x1="19.164" y1="53.058" x2="19.1" y2="53.058"/>
<line class="st0" x1="18.33" y1="52.929" x2="18.137" y2="52.865"/>
<polyline class="st0" points="20.897,53.571 20.512,55.112 20.319,55.497 20.833,53.764 "/>
<line class="st0" x1="15.826" y1="55.369" x2="20.319" y2="55.497"/>
<line class="st0" x1="15.826" y1="55.369" x2="15.826" y2="55.561"/>
<polyline class="st0" points="20.384,55.369 20.448,55.369 20.255,55.69 15.826,55.561 15.954,55.369 "/>
<polyline class="st0" points="20.448,55.369 19.87,57.423 19.678,57.744 20.255,55.69 "/>
<line class="st0" x1="18.586" y1="57.68" x2="19.678" y2="57.744"/>
<polyline class="st0" points="26.161,58.065 26.097,58.257 20.512,58.001 "/>
<line class="st0" x1="24.235" y1="57.808" x2="23.978" y2="57.808"/>
<line class="st0" x1="20.512" y1="58.001" x2="20.64" y2="57.808"/>
<line class="st0" x1="25.583" y1="58.771" x2="26.097" y2="58.257"/>
<polyline class="st0" points="26.482,58.065 26.417,58.257 25.904,58.835 "/>
<polyline class="st0" points="26.417,58.065 26.032,58.45 25.904,58.835 "/>
<line class="st0" x1="28.086" y1="58.386" x2="26.417" y2="58.257"/>
<line class="st0" x1="26.738" y1="57.936" x2="26.61" y2="57.936"/>
<polyline class="st0" points="25.326,55.754 25.198,55.946 26.867,58.065 28.086,58.129 "/>
<line class="st0" x1="28.086" y1="56.075" x2="25.198" y2="55.946"/>
<polyline class="st0" points="24.107,54.213 24.042,54.406 25.07,55.754 28.086,55.882 "/>
<line class="st0" x1="28.086" y1="55.176" x2="24.042" y2="54.406"/>
<line class="st0" x1="25.455" y1="54.278" x2="25.39" y2="54.278"/>
<polyline class="st0" points="25.39,53.764 25.262,53.957 25.583,54.47 28.086,54.984 "/>
<line class="st0" x1="28.086" y1="54.598" x2="25.262" y2="53.957"/>
<polyline class="st0" points="24.171,51.389 24.042,51.582 25.134,53.7 28.086,54.406 "/>
<line class="st0" x1="28.086" y1="51.71" x2="24.042" y2="51.582"/>
<polyline class="st0" points="23.272,49.72 23.144,49.913 23.914,51.389 28.086,51.517 "/>
<line class="st0" x1="28.086" y1="50.362" x2="23.144" y2="49.913"/>
<line class="st0" x1="26.032" y1="49.784" x2="25.968" y2="49.784"/>
<polyline class="st0" points="24.813,46.254 24.684,46.639 26.161,49.977 28.086,50.169 "/>
<polyline class="st0" points="25.968,45.676 25.84,45.869 24.684,46.639 "/>
<line class="st0" x1="25.84" y1="45.676" x2="24.813" y2="46.254"/>
<line class="st0" x1="28.086" y1="46.382" x2="25.84" y2="45.869"/>
<polyline class="st0" points="26.417,42.723 26.289,42.916 25.134,45.483 28.086,46.125 "/>
<line class="st0" x1="28.086" y1="44.2" x2="26.289" y2="42.916"/>
<polyline class="st0" points="27.124,41.054 27.059,41.247 26.417,42.723 28.086,43.943 "/>
<line class="st0" x1="28.086" y1="41.375" x2="27.059" y2="41.247"/>
<polyline class="st0" points="21.026,39.77 20.897,40.156 28.086,41.183 "/>
<polyline class="st0" points="21.026,39.77 21.86,38.808 21.732,39.129 20.897,40.156 "/>
<line class="st0" x1="28.086" y1="40.862" x2="21.732" y2="39.129"/>
<line class="st0" x1="27.573" y1="40.284" x2="27.445" y2="40.284"/>
<line class="st0" x1="21.924" y1="38.808" x2="21.86" y2="38.808"/>
<polyline class="st0" points="25.904,37.909 27.701,40.541 28.086,40.605 "/>
<polyline class="st0" points="27.509,40.22 27.38,40.477 25.647,37.845 "/>
<line class="st0" x1="25.968" y1="37.781" x2="25.776" y2="37.46"/>
<polyline class="st0" points="22.053,38.615 21.86,38.936 27.38,40.477 "/>
<line class="st0" x1="23.144" y1="37.46" x2="21.86" y2="38.936"/>
<line class="st0" x1="23.336" y1="37.074" x2="22.053" y2="38.615"/>
<polyline class="st0" points="16.917,36.497 19.87,40.027 20.576,40.091 22.823,37.395 "/>
<polyline class="st0" points="18.394,38.23 18.33,38.487 16.596,36.433 "/>
<line class="st0" x1="16.982" y1="36.368" x2="16.789" y2="36.047"/>
<polyline class="st0" points="15.826,39.45 16.404,39.514 18.33,38.487 "/>
<line class="st0" x1="15.826" y1="39.45" x2="15.826" y2="39.642"/>
<polyline class="st0" points="18.586,39.835 18.522,40.027 15.826,39.642 15.954,39.45 "/>
<line class="st0" x1="16.853" y1="39.385" x2="16.661" y2="39.385"/>
<polyline class="st0" points="20.448,42.466 20.319,42.659 18.522,40.027 "/>
<line class="st0" x1="18.907" y1="39.963" x2="18.843" y2="39.835"/>
<line class="st0" x1="15.826" y1="42.338" x2="20.319" y2="42.659"/>
<line class="st0" x1="15.826" y1="42.338" x2="15.826" y2="42.531"/>
<polyline class="st0" points="20.576,42.659 20.448,42.916 15.826,42.531 15.954,42.338 "/>
<line class="st0" x1="20.448" y1="42.531" x2="20.384" y2="42.531"/>
<polyline class="st0" points="21.796,44.521 21.667,44.713 20.448,42.916 "/>
<line class="st0" x1="21.603" y1="43.943" x2="21.539" y2="43.879"/>
<line class="st0" x1="15.826" y1="43.429" x2="21.667" y2="44.713"/>
<line class="st0" x1="19.998" y1="57.551" x2="19.806" y2="57.487"/>
<line class="st0" x1="26.032" y1="58.45" x2="25.904" y2="58.45"/>
<line class="st0" x1="26.738" y1="66.281" x2="28.086" y2="65.382"/>
<line class="st0" x1="28.086" y1="65.703" x2="26.738" y2="66.602"/>
<polyline class="st0" points="28.086,65.447 26.867,66.217 26.738,66.602 "/>
<line class="st0" x1="26.867" y1="66.217" x2="26.867" y2="66.153"/>
<polyline class="st0" points="17.238,69.041 15.826,68.592 15.954,68.464 "/>
<line class="st0" x1="15.826" y1="68.399" x2="17.238" y2="68.849"/>
<line class="st0" x1="15.826" y1="68.399" x2="15.826" y2="68.592"/>
<line class="st0" x1="15.826" y1="73.406" x2="17.238" y2="72.508"/>
<line class="st0" x1="15.826" y1="73.406" x2="15.826" y2="73.663"/>
<polyline class="st0" points="17.238,72.764 15.826,73.663 16.019,73.342 16.019,73.278 "/>
<line class="st0" x1="17.238" y1="72.572" x2="16.019" y2="73.342"/>
<polyline class="st0" points="25.711,85.217 25.84,85.217 25.711,85.602 19.742,84.126 "/>
<polyline class="st0" points="19.998,83.805 19.934,83.805 19.742,84.126 "/>
<polyline class="st0" points="25.84,85.217 25.968,85.795 25.776,86.116 25.711,85.602 "/>
<polyline class="st0" points="18.779,85.281 18.586,85.602 24.62,86.822 25.776,86.116 "/>
<line class="st0" x1="19.742" y1="84.126" x2="18.586" y2="85.602"/>
<line class="st0" x1="19.934" y1="83.805" x2="18.779" y2="85.281"/>
<polyline class="st0" points="25.134,86.501 26.032,86.052 25.84,86.373 24.941,86.886 25.134,86.501 "/>
<polyline class="st0" points="26.032,86.052 26.161,86.694 25.968,87.079 25.84,86.373 "/>
<line class="st0" x1="24.941" y1="86.886" x2="25.968" y2="87.079"/>
<polyline class="st0" points="24.62,89.454 24.492,89.646 20.127,88.234 20.191,88.042 "/>
<polyline class="st0" points="20.127,88.234 19.228,90.417 23.593,90.93 24.492,89.646 "/>
<polyline class="st0" points="23.015,86.501 22.951,86.694 20.897,86.308 20.961,86.116 "/>
<polyline class="st0" points="25.005,88.94 24.877,89.133 22.951,86.694 "/>
<line class="st0" x1="23.336" y1="86.629" x2="23.272" y2="86.565"/>
<polyline class="st0" points="20.897,86.308 20.191,88.042 24.62,89.454 24.877,89.133 "/>
<polyline class="st0" points="20.191,87.336 19.549,89.069 19.357,89.39 20.063,87.721 20.191,87.336 "/>
<polyline class="st0" points="17.623,88.042 17.495,88.298 19.357,89.39 "/>
<line class="st0" x1="20.063" y1="87.721" x2="17.495" y2="88.298"/>
<line class="st0" x1="20.191" y1="87.336" x2="20.191" y2="87.336"/>
<polyline class="st0" points="17.88,81.944 17.816,82.136 19.036,84.64 "/>
<polyline class="st0" points="19.036,84.64 20.769,82.393 17.816,82.136 "/>
<line class="st0" x1="15.826" y1="81.751" x2="17.559" y2="81.944"/>
<line class="st0" x1="15.826" y1="81.751" x2="15.826" y2="81.944"/>
<polyline class="st0" points="17.623,81.944 17.559,82.136 15.826,81.944 15.954,81.751 "/>
<polyline class="st0" points="19.036,84.575 18.907,84.832 17.559,82.136 "/>
<line class="st0" x1="17.88" y1="82.072" x2="17.816" y2="81.944"/>
<polyline class="st0" points="15.826,85.089 18.33,85.602 18.907,84.832 "/>
<line class="st0" x1="15.826" y1="85.089" x2="15.826" y2="85.281"/>
<polyline class="st0" points="20.705,86.052 20.64,86.244 15.826,85.281 15.954,85.089 "/>
<line class="st0" x1="18.715" y1="85.474" x2="18.458" y2="85.41"/>
<polyline class="st0" points="20.705,86.052 20.319,87.079 20.127,87.464 20.64,86.244 "/>
<polyline class="st0" points="15.826,87.336 17.238,88.17 20.127,87.464 "/>
<line class="st0" x1="15.826" y1="87.336" x2="15.826" y2="87.528"/>
<polyline class="st0" points="19.421,89.261 19.421,89.261 19.292,89.582 15.826,87.528 15.954,87.4 "/>
<line class="st0" x1="17.559" y1="88.106" x2="17.495" y2="88.106"/>
<polyline class="st0" points="19.421,89.261 19.164,90.032 18.971,90.352 19.292,89.582 "/>
<line class="st0" x1="15.826" y1="89.967" x2="18.971" y2="90.352"/>
<line class="st0" x1="15.826" y1="89.967" x2="15.826" y2="90.224"/>
<polyline class="st0" points="16.532,90.096 16.468,90.288 15.826,90.224 15.954,90.032 "/>
<polyline class="st0" points="17.046,90.994 16.917,91.251 16.468,90.288 "/>
<line class="st0" x1="16.725" y1="90.224" x2="16.661" y2="90.096"/>
<line class="st0" x1="15.826" y1="91.508" x2="16.917" y2="91.251"/>
<line class="st0" x1="15.826" y1="91.508" x2="15.826" y2="91.7"/>
<polyline class="st0" points="17.11,91.187 17.046,91.444 15.826,91.7 15.954,91.444 "/>
<line class="st0" x1="17.11" y1="91.123" x2="16.982" y2="91.187"/>
<polyline class="st0" points="18.522,94.076 18.394,94.396 17.046,91.444 "/>
<polyline class="st0" points="16.789,90.096 16.725,90.288 18.715,94.396 "/>
<polyline class="st0" points="22.63,90.802 22.502,90.994 16.725,90.288 "/>
<line class="st0" x1="19.292" y1="90.224" x2="19.036" y2="90.224"/>
<polyline class="st0" points="22.63,90.802 21.282,94.461 21.09,94.782 22.502,90.994 "/>
<polyline class="st0" points="22.245,92.471 22.181,92.663 21.346,94.846 "/>
<polyline class="st0" points="27.059,95.488 26.931,95.68 22.181,92.663 "/>
<polyline class="st0" points="22.887,90.866 22.759,91.059 22.245,92.471 27.445,95.744 "/>
<line class="st0" x1="28.086" y1="91.7" x2="22.759" y2="91.059"/>
<line class="st0" x1="23.978" y1="90.802" x2="23.721" y2="90.802"/>
<polyline class="st0" points="24.042,90.609 23.85,90.93 28.086,91.444 "/>
<polyline class="st0" points="25.134,89.133 25.07,89.325 23.85,90.93 "/>
<line class="st0" x1="25.134" y1="89.069" x2="24.042" y2="90.609"/>
<line class="st0" x1="28.086" y1="89.839" x2="25.07" y2="89.325"/>
<polyline class="st0" points="23.336,86.565 23.272,86.758 25.198,89.133 28.086,89.582 "/>
<line class="st0" x1="28.086" y1="87.656" x2="23.272" y2="86.758"/>
<line class="st0" x1="26.225" y1="86.95" x2="26.032" y2="86.886"/>
<line class="st0" x1="25.07" y1="86.694" x2="24.813" y2="86.694"/>
<polyline class="st0" points="25.455,83.163 26.225,87.143 28.086,87.464 "/>
<polyline class="st0" points="25.455,83.163 25.84,85.025 25.647,85.346 25.198,83.099 "/>
<polyline class="st0" points="20.063,83.612 19.934,83.998 25.647,85.346 "/>
<line class="st0" x1="21.09" y1="82.457" x2="19.934" y2="83.998"/>
<line class="st0" x1="20.961" y1="82.457" x2="20.063" y2="83.612"/>
<line class="st0" x1="21.475" y1="94.461" x2="21.282" y2="94.461"/>
<polyline class="st0" points="38.549,36.368 38.1,36.112 39.384,35.406 "/>
<line class="st0" x1="39.512" y1="35.277" x2="44.262" y2="32.517"/>
<line class="st0" x1="44.519" y1="32.389" x2="44.969" y2="32.132"/>
<polyline class="st0" points="45.289,32.003 45.931,31.618 46.381,31.875 "/>
<polyline class="st0" points="43.3,46.767 45.931,45.227 46.381,45.483 43.749,47.024 "/>
<line class="st0" x1="40.732" y1="48.244" x2="40.026" y2="48.629"/>
<line class="st0" x1="39.833" y1="48.757" x2="38.549" y2="49.463"/>
<line class="st0" x1="41.181" y1="48.5" x2="38.549" y2="49.977"/>
<line class="st0" x1="46.381" y1="31.875" x2="46.381" y2="45.483"/>
<line class="st0" x1="38.549" y1="49.977" x2="38.549" y2="36.368"/>
<line class="st0" x1="45.931" y1="33.672" x2="45.931" y2="35.406"/>
<line class="st0" x1="45.931" y1="35.662" x2="45.931" y2="36.368"/>
<line class="st0" x1="45.931" y1="36.625" x2="45.931" y2="37.909"/>
<line class="st0" x1="45.931" y1="38.102" x2="45.931" y2="40.027"/>
<line class="st0" x1="45.931" y1="40.22" x2="45.931" y2="41.247"/>
<line class="st0" x1="45.931" y1="41.439" x2="45.931" y2="44.135"/>
<line class="st0" x1="45.931" y1="44.392" x2="45.931" y2="45.227"/>
<line class="st0" x1="45.931" y1="32.581" x2="45.931" y2="33.48"/>
<line class="st0" x1="45.931" y1="31.618" x2="45.931" y2="32.324"/>
<polyline class="st0" points="39.384,35.406 38.935,35.149 39.063,35.02 39.512,35.277 "/>
<polyline class="st0" points="44.262,32.517 43.813,32.26 44.07,32.132 44.519,32.389 "/>
<polyline class="st0" points="44.969,32.132 44.519,31.875 44.776,31.747 45.289,32.003 "/>
<line class="st0" x1="40.026" y1="48.629" x2="39.897" y2="48.565"/>
<polyline class="st0" points="44.519,31.875 45.482,32.324 45.931,32.581 44.969,32.132 "/>
<line class="st0" x1="45.289" y1="32.003" x2="45.931" y2="32.324"/>
<line class="st0" x1="45.482" y1="32.068" x2="45.482" y2="32.324"/>
<polyline class="st0" points="40.925,40.733 41.117,40.862 41.759,41.953 "/>
<line class="st0" x1="40.796" y1="40.862" x2="40.925" y2="40.99"/>
<line class="st0" x1="41.117" y1="41.375" x2="41.245" y2="41.504"/>
<line class="st0" x1="41.759" y1="41.953" x2="41.374" y2="41.696"/>
<polyline class="st0" points="43.3,39.385 43.492,39.514 41.117,40.862 "/>
<line class="st0" x1="41.759" y1="41.953" x2="43.492" y2="39.514"/>
<polyline class="st0" points="43.877,42.595 44.07,42.659 41.31,44.456 "/>
<line class="st0" x1="42.401" y1="43.237" x2="42.337" y2="43.237"/>
<line class="st0" x1="41.31" y1="44.456" x2="41.181" y2="44.392"/>
<polyline class="st0" points="40.925,45.355 41.053,45.419 44.969,44.392 44.07,42.659 "/>
<line class="st0" x1="41.31" y1="44.456" x2="41.053" y2="45.419"/>
<polyline class="st0" points="40.796,45.548 40.989,45.676 40.026,48.629 "/>
<polyline class="st0" points="45.675,44.2 45.931,44.392 40.989,45.676 "/>
<line class="st0" x1="44.969" y1="44.2" x2="44.904" y2="44.264"/>
<polyline class="st0" points="44.84,44.135 45.161,44.328 45.931,44.135 "/>
<polyline class="st0" points="44.07,42.466 44.262,42.531 45.161,44.328 "/>
<line class="st0" x1="43.941" y1="42.531" x2="44.006" y2="42.595"/>
<polyline class="st0" points="45.739,41.375 45.931,41.439 44.262,42.531 "/>
<polyline class="st0" points="42.208,43.173 42.658,43.365 45.931,41.247 "/>
<polyline class="st0" points="41.823,42.531 42.273,42.787 42.658,43.365 "/>
<polyline class="st0" points="45.739,40.156 45.931,40.22 42.273,42.787 "/>
<line class="st0" x1="41.887" y1="42.466" x2="41.823" y2="42.466"/>
<polyline class="st0" points="41.759,42.402 42.208,42.595 45.931,40.027 "/>
<polyline class="st0" points="41.438,41.825 41.823,42.081 42.208,42.595 "/>
<polyline class="st0" points="43.62,39.257 43.813,39.321 41.823,42.081 "/>
<line class="st0" x1="41.438" y1="41.76" x2="41.438" y2="41.76"/>
<polyline class="st0" points="45.739,37.973 45.931,38.102 43.813,39.321 "/>
<polyline class="st0" points="41.759,40.156 41.887,40.22 45.931,37.909 "/>
<polyline class="st0" points="42.593,37.203 42.722,37.267 41.887,40.22 "/>
<polyline class="st0" points="45.61,36.433 45.931,36.625 42.722,37.267 "/>
<polyline class="st0" points="45.033,36.433 45.161,36.561 45.931,36.368 "/>
<polyline class="st0" points="45.803,35.534 45.931,35.662 45.161,36.561 "/>
<polyline class="st0" points="42.658,36.946 42.786,37.074 44.904,36.561 45.931,35.406 "/>
<polyline class="st0" points="43.171,35.213 43.3,35.341 42.786,37.074 "/>
<polyline class="st0" points="45.739,33.608 45.931,33.672 43.3,35.341 "/>
<polyline class="st0" points="42.401,35.534 42.529,35.598 45.867,33.48 45.931,33.48 "/>
<line class="st0" x1="44.519" y1="32.389" x2="42.529" y2="35.598"/>
<line class="st0" x1="44.07" y1="32.132" x2="43.941" y2="32.389"/>
<polyline class="st0" points="39.512,37.267 39.705,37.395 42.273,35.791 44.262,32.517 "/>
<line class="st0" x1="39.512" y1="35.277" x2="39.705" y2="37.395"/>
<line class="st0" x1="39.063" y1="35.02" x2="39.127" y2="35.213"/>
<polyline class="st0" points="38.549,38.166 39.512,37.524 39.384,35.406 "/>
<polyline class="st0" points="42.914,35.341 43.107,35.47 38.549,38.358 "/>
<polyline class="st0" points="38.549,40.926 42.401,37.845 43.107,35.47 "/>
<polyline class="st0" points="42.208,38.037 42.337,38.102 38.549,41.183 "/>
<polyline class="st0" points="38.549,42.146 41.695,40.348 42.337,38.102 "/>
<polyline class="st0" points="40.732,40.862 40.925,40.99 38.549,42.338 "/>
<polyline class="st0" points="38.549,44.135 41.181,41.375 40.925,40.99 "/>
<polyline class="st0" points="41.117,41.439 41.245,41.504 38.549,44.328 "/>
<polyline class="st0" points="38.549,46.061 42.465,43.494 41.245,41.504 "/>
<polyline class="st0" points="40.989,44.521 41.117,44.585 38.549,46.318 "/>
<line class="st0" x1="39.833" y1="48.757" x2="41.117" y2="44.585"/>
<line class="st0" x1="44.648" y1="15.699" x2="41.053" y2="15.121"/>
<line class="st0" x1="37.137" y1="14.544" x2="33.543" y2="13.966"/>
<line class="st0" x1="20.512" y1="58.001" x2="25.583" y2="58.771"/>
<line class="st0" x1="26.738" y1="66.602" x2="26.738" y2="70.068"/>
<line class="st0" x1="26.738" y1="70.646" x2="26.738" y2="71.866"/>
<line class="st0" x1="26.738" y1="82.971" x2="26.738" y2="83.099"/>
<line class="st0" x1="26.738" y1="78.798" x2="26.738" y2="82.778"/>
<line class="st0" x1="26.738" y1="62.558" x2="26.738" y2="66.281"/>
<line class="st0" x1="17.302" y1="57.487" x2="18.586" y2="57.68"/>
<polyline class="st0" points="25.904,58.835 26.738,58.963 26.738,61.21 "/>
<line class="st0" x1="26.738" y1="61.403" x2="26.738" y2="62.237"/>
<line class="st0" x1="26.738" y1="72.058" x2="26.738" y2="75.075"/>
<line class="st0" x1="26.738" y1="75.268" x2="26.738" y2="78.541"/>
<line class="st0" x1="26.738" y1="83.099" x2="26.674" y2="83.227"/>
<line class="st0" x1="26.738" y1="58.963" x2="26.674" y2="59.092"/>
<line class="st0" x1="17.302" y1="57.487" x2="17.238" y2="57.68"/>
<line class="st0" x1="23.914" y1="62.494" x2="22.374" y2="62.237"/>
<polyline class="st0" points="23.914,62.173 22.502,61.98 22.374,62.237 "/>
<line class="st0" x1="23.914" y1="59.605" x2="23.914" y2="62.494"/>
<line class="st0" x1="22.502" y1="61.98" x2="22.502" y2="59.413"/>
<line class="st0" x1="23.914" y1="66.217" x2="22.374" y2="65.96"/>
<polyline class="st0" points="23.914,65.896 22.502,65.703 22.374,65.96 "/>
<polyline class="st0" points="22.374,62.686 23.914,62.879 23.914,66.217 "/>
<line class="st0" x1="22.502" y1="65.703" x2="22.502" y2="62.686"/>
<polyline class="st0" points="22.374,66.409 23.914,66.666 23.914,69.94 "/>
<polyline class="st0" points="23.914,69.683 22.502,69.426 22.502,66.409 "/>
<line class="st0" x1="23.914" y1="73.92" x2="22.374" y2="73.663"/>
<polyline class="st0" points="23.914,73.599 22.502,73.406 22.374,73.663 "/>
<line class="st0" x1="23.914" y1="71.031" x2="23.914" y2="73.92"/>
<line class="st0" x1="22.502" y1="73.406" x2="22.502" y2="70.839"/>
<line class="st0" x1="23.914" y1="77.643" x2="22.374" y2="77.386"/>
<polyline class="st0" points="23.914,77.322 22.502,77.129 22.374,77.386 "/>
<polyline class="st0" points="22.374,74.112 23.914,74.305 23.914,77.643 "/>
<line class="st0" x1="22.502" y1="77.129" x2="22.502" y2="74.112"/>
<polyline class="st0" points="22.374,77.835 23.914,78.092 23.914,81.366 "/>
<polyline class="st0" points="23.914,81.109 22.502,80.852 22.502,77.835 "/>
<polyline class="st0" points="20.255,77.514 20.255,80.531 20.127,80.788 20.127,77.45 21.475,77.707 "/>
<line class="st0" x1="21.475" y1="80.724" x2="20.255" y2="80.531"/>
<polyline class="st0" points="20.255,73.727 20.255,76.744 20.127,77.065 20.127,73.727 21.475,73.92 "/>
<line class="st0" x1="21.475" y1="77.258" x2="20.127" y2="77.065"/>
<line class="st0" x1="21.475" y1="76.937" x2="20.255" y2="76.744"/>
<polyline class="st0" points="20.255,70.453 20.255,73.021 20.127,73.342 20.127,70.453 "/>
<line class="st0" x1="21.475" y1="73.535" x2="20.127" y2="73.342"/>
<line class="st0" x1="21.475" y1="73.214" x2="20.255" y2="73.021"/>
<polyline class="st0" points="20.255,66.089 20.255,69.105 20.127,69.362 20.127,66.024 21.475,66.281 "/>
<line class="st0" x1="21.475" y1="69.298" x2="20.255" y2="69.105"/>
<polyline class="st0" points="20.255,62.301 20.255,65.318 20.127,65.639 20.127,62.301 21.475,62.494 "/>
<line class="st0" x1="21.475" y1="65.832" x2="20.127" y2="65.639"/>
<line class="st0" x1="21.475" y1="65.511" x2="20.255" y2="65.318"/>
<polyline class="st0" points="20.255,59.028 20.255,61.595 20.127,61.916 20.127,59.028 "/>
<line class="st0" x1="21.475" y1="62.109" x2="20.127" y2="61.916"/>
<line class="st0" x1="21.475" y1="61.788" x2="20.255" y2="61.595"/>
<polyline class="st0" points="24.556,59.734 24.556,62.301 24.428,62.558 24.428,59.734 "/>
<line class="st0" x1="25.776" y1="62.751" x2="24.428" y2="62.558"/>
<line class="st0" x1="25.776" y1="62.494" x2="24.556" y2="62.301"/>
<polyline class="st0" points="24.556,63.007 24.556,66.024 24.428,66.281 24.428,63.007 25.776,63.2 "/>
<line class="st0" x1="25.776" y1="66.538" x2="24.428" y2="66.281"/>
<line class="st0" x1="25.776" y1="66.217" x2="24.556" y2="66.024"/>
<polyline class="st0" points="24.556,66.73 24.556,69.747 24.428,70.068 24.428,66.73 25.776,66.923 "/>
<line class="st0" x1="25.776" y1="69.94" x2="24.556" y2="69.747"/>
<polyline class="st0" points="24.556,71.16 24.556,73.727 24.428,73.984 24.428,71.16 "/>
<line class="st0" x1="25.776" y1="74.176" x2="24.428" y2="73.984"/>
<line class="st0" x1="25.776" y1="73.92" x2="24.556" y2="73.727"/>
<polyline class="st0" points="24.556,74.433 24.556,77.45 24.428,77.707 24.428,74.433 25.776,74.626 "/>
<line class="st0" x1="25.776" y1="77.964" x2="24.428" y2="77.707"/>
<line class="st0" x1="25.776" y1="77.643" x2="24.556" y2="77.45"/>
<polyline class="st0" points="24.556,78.156 24.556,81.173 24.428,81.494 24.428,78.156 25.776,78.349 "/>
<line class="st0" x1="25.776" y1="81.366" x2="24.556" y2="81.173"/>
<polyline class="st0" points="18.073,77.129 19.613,77.386 19.613,80.724 "/>
<polyline class="st0" points="19.613,80.403 18.201,80.21 18.201,77.193 "/>
<line class="st0" x1="19.613" y1="77.001" x2="18.073" y2="76.744"/>
<polyline class="st0" points="19.613,76.68 18.201,76.423 18.073,76.744 "/>
<polyline class="st0" points="18.073,73.406 19.613,73.663 19.613,77.001 "/>
<line class="st0" x1="18.201" y1="76.423" x2="18.201" y2="73.47"/>
<line class="st0" x1="19.613" y1="73.214" x2="18.073" y2="73.021"/>
<polyline class="st0" points="19.613,72.957 18.201,72.7 18.073,73.021 "/>
<line class="st0" x1="19.613" y1="70.389" x2="19.613" y2="73.214"/>
<line class="st0" x1="18.201" y1="72.7" x2="18.201" y2="70.132"/>
<polyline class="st0" points="18.073,65.703 19.613,65.96 19.613,69.298 "/>
<polyline class="st0" points="19.613,68.977 18.201,68.785 18.201,65.768 "/>
<line class="st0" x1="19.613" y1="65.575" x2="18.073" y2="65.318"/>
<polyline class="st0" points="19.613,65.254 18.201,64.997 18.073,65.318 "/>
<polyline class="st0" points="18.073,61.98 19.613,62.237 19.613,65.575 "/>
<line class="st0" x1="18.201" y1="64.997" x2="18.201" y2="62.045"/>
<line class="st0" x1="19.613" y1="61.788" x2="18.073" y2="61.595"/>
<polyline class="st0" points="19.613,61.531 18.201,61.274 18.073,61.595 "/>
<line class="st0" x1="19.613" y1="58.963" x2="19.613" y2="61.788"/>
<line class="st0" x1="18.201" y1="61.274" x2="18.201" y2="58.707"/>
<line class="st0" x1="22.374" y1="62.686" x2="22.374" y2="62.237"/>
<line class="st0" x1="22.374" y1="66.409" x2="22.374" y2="65.96"/>
<line class="st0" x1="24.428" y1="70.068" x2="23.914" y2="69.94"/>
<line class="st0" x1="22.374" y1="74.112" x2="22.374" y2="73.663"/>
<line class="st0" x1="22.374" y1="77.835" x2="22.374" y2="77.386"/>
<line class="st0" x1="18.073" y1="73.406" x2="18.073" y2="73.021"/>
<line class="st0" x1="18.073" y1="77.129" x2="18.073" y2="76.744"/>
<line class="st0" x1="18.073" y1="61.98" x2="18.073" y2="61.595"/>
<line class="st0" x1="18.073" y1="65.703" x2="18.073" y2="65.318"/>
<line class="st0" x1="20.127" y1="69.362" x2="19.613" y2="69.298"/>
<polyline class="st0" points="17.88,58.707 21.475,59.22 21.475,70.068 17.88,69.491 17.88,58.707 "/>
<polyline class="st0" points="22.181,59.349 25.776,59.926 25.776,70.71 22.181,70.132 22.181,59.349 "/>
<polyline class="st0" points="17.88,80.916 17.88,70.132 21.475,70.646 21.475,81.494 "/>
<polyline class="st0" points="22.181,81.558 22.181,70.774 25.776,71.352 25.776,82.136 "/>
<line class="st0" x1="22.181" y1="70.132" x2="22.502" y2="69.426"/>
<line class="st0" x1="17.88" y1="69.491" x2="18.201" y2="68.785"/>
<line class="st0" x1="23.914" y1="81.366" x2="24.428" y2="81.494"/>
<line class="st0" x1="19.613" y1="80.724" x2="20.127" y2="80.788"/>
<line class="st0" x1="21.475" y1="81.494" x2="22.181" y2="81.558"/>
<polyline class="st0" points="25.647,83.099 25.647,82.521 25.776,82.136 25.776,82.778 25.647,83.099 17.688,81.879 17.688,81.237 
	17.88,80.916 18.201,80.21 "/>
<line class="st0" x1="25.647" y1="82.521" x2="17.688" y2="81.237"/>
<line class="st0" x1="22.181" y1="81.558" x2="22.502" y2="80.852"/>
<line class="st0" x1="26.032" y1="83.035" x2="25.711" y2="82.971"/>
<line class="st0" x1="17.688" y1="81.751" x2="17.623" y2="81.687"/>
<polyline class="st0" points="17.623,81.687 17.302,81.879 17.238,81.815 "/>
<polyline class="st0" points="26.032,83.035 26.289,83.227 26.546,83.292 26.674,83.227 "/>
<line class="st0" x1="17.623" y1="81.687" x2="17.623" y2="58.45"/>
<polyline class="st0" points="17.623,58.45 17.367,58.129 17.238,57.872 17.238,57.68 "/>
<line class="st0" x1="17.623" y1="58.45" x2="26.032" y2="59.734"/>
<polyline class="st0" points="26.032,59.734 26.289,59.541 26.546,59.284 26.674,59.092 "/>
<polyline class="st0" points="26.674,83.227 26.674,59.092 17.238,57.68 "/>
<line class="st0" x1="26.032" y1="59.734" x2="26.032" y2="83.035"/>
<line class="st0" x1="17.238" y1="81.879" x2="26.482" y2="83.292"/>
<line class="st0" x1="17.238" y1="57.744" x2="17.238" y2="81.815"/>
<polyline class="st0" points="8.38,89.518 8.123,89.325 7.738,89.261 "/>
<line class="st0" x1="8.38" y1="89.518" x2="8.38" y2="81.751"/>
<polyline class="st0" points="8.187,80.981 7.995,80.916 7.738,80.916 "/>
<line class="st0" x1="7.738" y1="89.261" x2="7.738" y2="80.916"/>
<polyline class="st0" points="7.738,80.916 7.738,80.467 7.866,80.339 8.059,80.531 8.187,81.045 8.316,81.687 8.38,82.329 "/>
<line class="st0" x1="8.38" y1="82.329" x2="8.38" y2="90.738"/>
<line class="st0" x1="8.38" y1="89.582" x2="8.38" y2="89.518"/>
<line class="st0" x1="7.738" y1="89.261" x2="7.225" y2="88.17"/>
<polyline class="st0" points="9.921,91.7 8.894,91.829 8.38,90.738 "/>
<line class="st0" x1="8.894" y1="91.829" x2="8.894" y2="63.007"/>
<line class="st0" x1="7.225" y1="59.349" x2="7.225" y2="88.17"/>
<polyline class="st0" points="8.894,63.007 9.921,62.879 9.921,91.7 "/>
<line class="st0" x1="7.417" y1="57.359" x2="9.6" y2="57.038"/>
<polyline class="st0" points="9.6,60.247 9.985,62.815 8.38,63.072 "/>
<line class="st0" x1="9.985" y1="62.815" x2="9.921" y2="62.879"/>
<line class="st0" x1="7.546" y1="58.771" x2="7.225" y2="59.349"/>
<polyline class="st0" points="8.894,63.007 8.316,63.136 7.417,58.065 6.583,59.413 7.225,59.349 "/>
<polyline class="st0" points="7.417,57.359 6.454,58.899 6.583,59.413 "/>
<polyline class="st0" points="8.316,63.136 8.38,63.072 7.417,57.359 "/>
<line class="st0" x1="43.171" y1="46.896" x2="38.293" y2="54.47"/>
<polyline class="st0" points="43.364,47.281 38.229,55.24 38.293,54.984 "/>
<polyline class="st0" points="43.364,47.281 43.235,47.152 43.171,46.896 "/>
<polyline class="st0" points="43.364,47.281 48.435,49.335 48.178,49.142 48.114,48.886 43.171,46.896 42.016,46.254 40.732,48.244 
	41.181,48.5 38.293,52.929 "/>
<line class="st0" x1="38.293" y1="54.021" x2="38.293" y2="53.892"/>
<polyline class="st0" points="47.279,48.5 47.472,48.565 47.6,48.629 47.857,48.757 48.114,48.886 "/>
<polyline class="st0" points="42.016,46.254 43.3,46.767 43.749,47.024 47.023,48.308 47.279,48.5 "/>
<line class="st0" x1="38.229" y1="55.882" x2="38.229" y2="55.24"/>
<line class="st0" x1="48.435" y1="49.335" x2="48.435" y2="49.977"/>
<line class="st0" x1="43.364" y1="47.987" x2="38.229" y2="55.882"/>
<polyline class="st0" points="43.235,48.179 48.114,50.105 48.178,49.913 48.306,49.913 "/>
<line class="st0" x1="48.435" y1="49.977" x2="43.364" y2="47.987"/>
<polyline class="st0" points="38.293,65.832 39.127,64.227 40.026,62.751 41.117,61.403 39.705,62.173 38.293,63.2 "/>
<polyline class="st0" points="47.023,63.842 46.509,62.686 45.739,61.788 44.84,61.146 43.685,60.889 42.465,60.953 41.374,62.109 
	40.411,63.393 39.577,64.741 38.87,66.217 38.293,67.693 "/>
<polyline class="st0" points="47.023,58.321 45.931,58.642 44.904,59.156 43.813,59.798 45.033,60.055 46.124,60.568 47.023,61.467 
	"/>
<line class="st0" x1="46.702" y1="58.514" x2="46.766" y2="58.386"/>
<line class="st0" x1="46.83" y1="61.274" x2="46.702" y2="60.697"/>
<polyline class="st0" points="47.023,63.842 46.83,63.97 46.766,64.227 46.766,64.741 46.702,65.96 "/>
<polyline class="st0" points="46.702,60.697 46.06,60.119 45.289,59.669 44.455,59.413 "/>
<polyline class="st0" points="44.583,59.284 45.675,58.835 46.702,58.514 "/>
<polyline class="st0" points="42.273,61.146 43.556,61.146 44.583,61.467 45.482,62.173 46.188,63.136 46.573,64.42 46.702,65.96 
	"/>
<polyline class="st0" points="39.962,61.98 39.063,63.264 38.293,64.612 "/>
<polyline class="st0" points="41.31,51.902 41.374,51.774 41.438,51.517 41.374,51.325 41.31,51.196 41.31,51.132 "/>
<polyline class="st0" points="41.053,51.517 41.117,51.646 41.181,51.646 41.181,51.517 41.245,51.517 41.181,51.838 41.053,51.902 
	40.925,51.967 40.925,51.838 40.925,51.71 "/>
<polyline class="st0" points="41.374,51.004 41.438,51.004 41.502,51.196 41.502,51.389 41.502,51.582 41.438,51.774 41.374,51.838 
	"/>
<polyline class="st0" points="45.739,51.902 45.803,51.517 45.931,51.582 45.867,51.902 45.931,51.967 46.124,51.774 46.188,51.646 
	45.996,51.517 46.124,51.325 46.316,51.132 46.509,51.325 46.509,51.646 46.381,51.517 46.381,51.325 46.316,51.261 46.188,51.453 
	46.124,51.517 46.316,51.71 46.188,51.902 45.996,52.095 45.739,51.902 "/>
<polyline class="st0" points="46.124,49.656 46.06,49.72 45.996,49.784 45.996,49.656 46.06,49.527 46.124,49.527 46.124,49.656 "/>
<polyline class="st0" points="45.418,49.784 45.354,49.913 45.225,49.848 44.969,50.298 44.969,50.362 45.033,50.426 45.097,50.362 
	45.097,50.426 44.84,50.554 44.84,50.49 44.776,50.298 44.84,50.233 45.097,49.784 44.969,49.72 45.161,49.656 45.225,49.592 
	45.354,49.463 45.61,49.206 45.289,49.72 45.418,49.784 "/>
<polyline class="st0" points="44.583,50.105 44.648,50.169 44.391,50.362 44.327,50.233 44.327,50.169 44.006,50.362 44.006,50.169 
	44.006,49.977 44.134,49.72 44.262,49.527 44.327,49.463 44.455,49.399 44.648,49.335 44.648,49.399 44.712,49.463 44.776,49.463 
	44.712,49.592 44.519,50.105 44.519,50.169 44.583,50.105 "/>
<polyline class="st0" points="38.999,54.727 39.063,54.663 39.32,54.598 39.512,54.406 39.384,54.213 "/>
<polyline class="st0" points="38.742,55.048 38.935,55.048 39.127,55.112 39.191,55.112 39.127,55.176 39.063,55.24 39.191,55.433 
	39.256,55.433 39.191,55.369 39.191,55.305 39.32,55.24 39.127,54.919 38.935,54.855 "/>
<polyline class="st0" points="38.549,55.369 38.806,55.305 39.063,55.433 39.127,55.561 39.127,55.754 39.063,55.882 39.063,55.946 
	39.063,56.011 38.935,55.818 38.935,55.69 38.999,55.625 38.935,55.561 38.742,55.561 38.421,55.561 "/>
<polyline class="st0" points="38.293,55.946 38.421,55.818 38.549,55.754 38.742,55.754 38.742,55.882 38.678,56.075 38.614,56.139 
	38.549,56.139 38.549,56.075 38.614,56.075 38.614,56.011 38.678,55.946 38.678,55.882 38.549,55.882 38.357,56.011 38.293,56.075 
	"/>
<polyline class="st0" points="39.127,54.47 39.256,54.406 39.384,54.278 39.384,54.213 "/>
<polyline class="st0" points="40.154,52.929 40.154,53.186 39.962,53.315 39.833,53.7 39.705,53.764 39.577,53.764 "/>
<line class="st0" x1="40.09" y1="53.058" x2="40.09" y2="53.058"/>
<polyline class="st0" points="40.411,52.544 40.411,52.609 40.539,52.544 40.604,52.48 40.668,52.159 40.604,52.159 40.604,52.288 
	40.539,52.352 "/>
<polyline class="st0" points="42.016,50.105 42.273,50.298 41.952,50.747 42.016,50.811 42.144,50.875 42.208,50.747 42.273,50.811 
	42.016,51.068 41.887,51.068 41.823,50.94 41.759,50.683 41.823,50.49 42.016,50.105 "/>
<polyline class="st0" points="43.749,50.041 43.685,50.105 43.62,50.105 43.685,49.592 43.813,49.463 43.685,49.463 43.62,49.463 
	43.556,49.399 43.428,49.527 43.235,49.656 43.235,49.592 43.107,49.527 42.979,49.656 42.85,49.848 42.85,49.784 42.786,49.656 
	42.529,49.977 42.593,49.977 42.658,49.913 42.722,49.913 42.593,50.426 42.529,50.554 42.658,50.683 42.85,50.426 42.786,50.362 
	42.85,49.913 42.979,49.72 43.107,49.72 43.107,49.848 43.043,50.298 42.979,50.362 43.107,50.49 43.235,50.298 43.171,50.233 
	43.3,49.72 43.428,49.592 43.556,49.656 43.428,50.233 43.556,50.362 43.749,50.041 "/>
<polyline class="st0" points="45.482,50.747 45.482,50.811 45.225,50.875 45.225,50.683 45.61,50.105 45.675,50.041 45.61,50.041 
	45.546,50.041 45.546,49.977 45.803,49.913 45.803,50.041 45.803,50.169 45.739,50.233 45.418,50.683 45.418,50.747 45.482,50.747 
	"/>
<polyline class="st0" points="46.252,50.554 46.188,50.811 46.06,50.747 46.124,50.554 46.06,50.554 45.931,50.619 45.739,50.94 
	45.675,51.068 45.61,51.196 45.739,51.261 45.675,51.325 45.482,51.261 45.546,51.004 45.61,50.875 45.867,50.554 45.996,50.49 
	46.188,50.49 46.252,50.554 "/>
<line class="st0" x1="46.188" y1="50.811" x2="46.06" y2="50.747"/>
<line class="st0" x1="45.675" y1="51.325" x2="45.482" y2="51.196"/>
<line class="st0" x1="45.61" y1="51.196" x2="45.482" y2="51.132"/>
<line class="st0" x1="45.675" y1="51.068" x2="45.546" y2="51.004"/>
<line class="st0" x1="45.739" y1="50.94" x2="45.61" y2="50.811"/>
<line class="st0" x1="45.931" y1="50.619" x2="45.867" y2="50.554"/>
<polyline class="st0" points="46.124,50.554 45.996,50.49 46.06,50.554 45.931,50.49 "/>
<polyline class="st0" points="45.482,50.811 45.418,50.747 45.289,50.683 45.418,50.747 "/>
<line class="st0" x1="45.418" y1="50.683" x2="45.289" y2="50.619"/>
<line class="st0" x1="45.739" y1="50.233" x2="45.61" y2="50.169"/>
<line class="st0" x1="45.803" y1="50.169" x2="45.675" y2="50.041"/>
<line class="st0" x1="45.803" y1="50.041" x2="45.675" y2="49.977"/>
<line class="st0" x1="45.61" y1="50.041" x2="45.546" y2="49.977"/>
<line class="st0" x1="43.749" y1="50.041" x2="43.749" y2="50.041"/>
<polyline class="st0" points="43.492,49.977 43.62,50.105 43.492,50.041 "/>
<line class="st0" x1="43.685" y1="49.592" x2="43.492" y2="49.463"/>
<line class="st0" x1="43.62" y1="49.463" x2="43.556" y2="49.399"/>
<line class="st0" x1="43.235" y1="49.656" x2="43.107" y2="49.592"/>
<polyline class="st0" points="42.85,49.848 42.722,49.72 42.85,49.784 "/>
<polyline class="st0" points="42.593,49.848 42.658,49.913 42.593,49.913 "/>
<line class="st0" x1="42.85" y1="50.426" x2="42.658" y2="50.362"/>
<line class="st0" x1="42.786" y1="50.362" x2="42.658" y2="50.298"/>
<line class="st0" x1="42.85" y1="49.913" x2="42.658" y2="49.784"/>
<polyline class="st0" points="42.979,49.72 42.979,49.72 43.107,49.72 "/>
<polyline class="st0" points="43.235,50.298 43.043,50.169 43.171,50.233 "/>
<line class="st0" x1="43.3" y1="49.72" x2="43.043" y2="49.592"/>
<polyline class="st0" points="43.428,49.592 43.364,49.527 43.556,49.656 "/>
<polyline class="st0" points="41.952,50.298 42.016,50.362 41.952,50.362 41.887,50.362 "/>
<polyline class="st0" points="41.952,50.362 41.952,50.49 41.823,50.426 "/>
<polyline class="st0" points="41.952,50.49 41.952,50.683 41.823,50.619 "/>
<polyline class="st0" points="41.952,50.683 42.08,50.426 42.016,50.362 "/>
<line class="st0" x1="42.273" y1="50.298" x2="42.016" y2="50.169"/>
<line class="st0" x1="42.016" y1="51.068" x2="41.823" y2="50.94"/>
<line class="st0" x1="42.273" y1="50.811" x2="42.208" y2="50.747"/>
<polyline class="st0" points="42.016,50.811 41.759,50.683 41.952,50.747 41.759,50.619 "/>
<line class="st0" x1="40.539" y1="52.544" x2="40.411" y2="52.48"/>
<line class="st0" x1="40.604" y1="52.48" x2="40.475" y2="52.416"/>
<line class="st0" x1="40.539" y1="52.352" x2="40.539" y2="52.352"/>
<polyline class="st0" points="39.705,53.636 39.705,53.571 39.833,53.507 39.897,53.315 "/>
<line class="st0" x1="39.705" y1="53.764" x2="39.641" y2="53.7"/>
<line class="st0" x1="39.833" y1="53.7" x2="39.705" y2="53.636"/>
<polyline class="st0" points="39.897,53.25 39.962,53.315 39.897,53.25 "/>
<line class="st0" x1="40.154" y1="53.186" x2="40.026" y2="53.122"/>
<line class="st0" x1="38.357" y1="56.011" x2="38.293" y2="56.011"/>
<line class="st0" x1="38.549" y1="55.882" x2="38.421" y2="55.818"/>
<line class="st0" x1="38.678" y1="55.882" x2="38.485" y2="55.818"/>
<line class="st0" x1="38.614" y1="56.139" x2="38.549" y2="56.139"/>
<line class="st0" x1="38.678" y1="56.075" x2="38.614" y2="56.011"/>
<line class="st0" x1="38.742" y1="55.882" x2="38.549" y2="55.754"/>
<line class="st0" x1="38.742" y1="55.561" x2="38.549" y2="55.433"/>
<line class="st0" x1="38.935" y1="55.561" x2="38.549" y2="55.369"/>
<line class="st0" x1="39.063" y1="55.946" x2="38.999" y2="55.882"/>
<polyline class="st0" points="38.935,55.754 39.063,55.882 38.935,55.818 "/>
<line class="st0" x1="39.127" y1="55.754" x2="38.999" y2="55.69"/>
<line class="st0" x1="39.127" y1="55.561" x2="38.742" y2="55.305"/>
<line class="st0" x1="38.678" y1="55.369" x2="38.678" y2="55.433"/>
<line class="st0" x1="38.935" y1="55.048" x2="38.806" y2="54.984"/>
<polyline class="st0" points="39.127,55.112 38.87,54.919 39.191,55.112 "/>
<line class="st0" x1="39.256" y1="55.433" x2="39.127" y2="55.369"/>
<line class="st0" x1="39.191" y1="55.369" x2="39.063" y2="55.305"/>
<line class="st0" x1="39.191" y1="55.305" x2="39.063" y2="55.24"/>
<line class="st0" x1="39.32" y1="55.24" x2="39.127" y2="55.112"/>
<line class="st0" x1="39.063" y1="54.663" x2="38.999" y2="54.663"/>
<line class="st0" x1="39.32" y1="54.598" x2="39.127" y2="54.47"/>
<line class="st0" x1="39.512" y1="54.406" x2="39.384" y2="54.342"/>
<line class="st0" x1="41.438" y1="51.004" x2="41.374" y2="51.004"/>
<line class="st0" x1="41.502" y1="51.196" x2="41.31" y2="51.132"/>
<line class="st0" x1="41.053" y1="51.902" x2="40.925" y2="51.838"/>
<line class="st0" x1="41.181" y1="51.838" x2="40.925" y2="51.71"/>
<line class="st0" x1="41.117" y1="51.646" x2="40.989" y2="51.582"/>
<line class="st0" x1="41.438" y1="51.774" x2="41.374" y2="51.774"/>
<line class="st0" x1="41.502" y1="51.582" x2="41.438" y2="51.517"/>
<line class="st0" x1="41.502" y1="51.389" x2="41.374" y2="51.389"/>
<line class="st0" x1="41.31" y1="51.902" x2="41.374" y2="51.838"/>
<polyline class="st0" points="44.583,49.592 44.519,49.527 44.455,49.463 44.391,49.399 "/>
<polyline class="st0" points="44.391,49.399 44.455,49.463 44.327,49.592 44.262,49.527 "/>
<polyline class="st0" points="44.327,49.592 44.198,49.784 44.134,49.72 "/>
<polyline class="st0" points="44.198,49.784 44.134,49.977 44.07,49.913 "/>
<polyline class="st0" points="44.134,49.977 44.134,50.105 44.006,50.041 "/>
<polyline class="st0" points="44.134,50.105 44.134,50.233 44.006,50.105 "/>
<polyline class="st0" points="44.134,50.233 44.327,50.105 44.583,49.592 "/>
<line class="st0" x1="44.648" y1="50.169" x2="44.583" y2="50.105"/>
<line class="st0" x1="44.519" y1="50.169" x2="44.391" y2="50.105"/>
<line class="st0" x1="44.519" y1="50.105" x2="44.391" y2="50.041"/>
<line class="st0" x1="44.712" y1="49.592" x2="44.455" y2="49.463"/>
<line class="st0" x1="44.712" y1="49.463" x2="44.519" y2="49.335"/>
<line class="st0" x1="44.648" y1="49.399" x2="44.583" y2="49.335"/>
<line class="st0" x1="44.327" y1="50.169" x2="44.262" y2="50.169"/>
<line class="st0" x1="45.354" y1="49.913" x2="45.033" y2="49.72"/>
<line class="st0" x1="45.289" y1="49.72" x2="45.161" y2="49.656"/>
<line class="st0" x1="45.097" y1="49.784" x2="44.969" y2="49.72"/>
<line class="st0" x1="45.097" y1="50.426" x2="45.033" y2="50.362"/>
<line class="st0" x1="44.969" y1="50.362" x2="44.84" y2="50.298"/>
<line class="st0" x1="44.969" y1="50.298" x2="44.84" y2="50.233"/>
<line class="st0" x1="45.225" y1="49.848" x2="45.033" y2="49.72"/>
<line class="st0" x1="46.124" y1="49.656" x2="45.996" y2="49.592"/>
<line class="st0" x1="46.06" y1="49.72" x2="45.996" y2="49.656"/>
<line class="st0" x1="46.188" y1="51.902" x2="46.06" y2="51.838"/>
<line class="st0" x1="46.316" y1="51.71" x2="45.996" y2="51.517"/>
<line class="st0" x1="46.124" y1="51.517" x2="46.06" y2="51.453"/>
<line class="st0" x1="46.188" y1="51.453" x2="46.06" y2="51.389"/>
<line class="st0" x1="46.316" y1="51.261" x2="46.188" y2="51.196"/>
<line class="st0" x1="46.509" y1="51.325" x2="46.252" y2="51.196"/>
<polyline class="st0" points="45.931,51.967 45.739,51.838 45.867,51.902 "/>
<line class="st0" x1="45.931" y1="51.582" x2="45.803" y2="51.517"/>
<polyline class="st0" points="41.374,51.838 42.273,51.132 43.171,50.683 44.006,50.554 44.712,50.811 "/>
<polyline class="st0" points="40.218,58.578 39.641,58.065 39.384,57.294 39.256,56.267 39.448,55.176 39.897,54.021 40.539,52.865 
	41.31,51.902 "/>
<polyline class="st0" points="40.668,56.267 40.796,55.305 41.181,54.278 41.759,53.315 42.529,52.609 43.3,52.159 44.07,52.031 
	44.648,52.223 45.033,52.801 45.161,53.636 45.033,54.598 44.648,55.625 44.07,56.524 43.3,57.294 42.529,57.744 41.759,57.872 
	41.181,57.615 40.796,57.038 40.668,56.267 "/>
<polyline class="st0" points="41.117,57.551 41.695,57.615 42.401,57.359 43.043,56.845 43.685,56.139 "/>
<polyline class="st0" points="44.455,54.791 44.648,53.957 44.712,53.186 44.583,52.544 44.262,52.031 "/>
<line class="st0" x1="44.712" y1="50.811" x2="44.904" y2="50.875"/>
<line class="st0" x1="40.218" y1="58.578" x2="40.411" y2="58.707"/>
<line class="st0" x1="46.637" y1="58.514" x2="46.637" y2="60.632"/>
<line class="st0" x1="44.455" y1="59.349" x2="45.61" y2="59.798"/>
<polyline class="st0" points="39.705,62.173 38.935,63.264 38.293,64.355 "/>
<line class="st0" x1="45.675" y1="59.862" x2="45.61" y2="59.798"/>
<line class="st0" x1="46.702" y1="65.96" x2="46.06" y2="65.575"/>
<line class="st0" x1="46.06" y1="65.575" x2="46.06" y2="88.619"/>
<polyline class="st0" points="44.391,61.338 45.097,62.109 45.675,63.072 45.996,64.227 46.06,65.575 "/>
<line class="st0" x1="46.06" y1="88.619" x2="38.293" y2="93.113"/>
<polyline class="st0" points="44.262,52.288 44.455,52.609 44.455,55.754 43.62,56.203 "/>
<line class="st0" x1="44.455" y1="52.609" x2="43.62" y2="53.058"/>
<line class="st0" x1="42.337" y1="53.764" x2="41.566" y2="54.278"/>
<line class="st0" x1="41.566" y1="53.636" x2="42.465" y2="53.122"/>
<line class="st0" x1="41.566" y1="57.423" x2="42.337" y2="56.909"/>
<polyline class="st0" points="42.465,53.122 44.07,52.159 44.262,52.288 "/>
<line class="st0" x1="40.796" y1="57.166" x2="40.796" y2="55.112"/>
<line class="st0" x1="40.86" y1="57.23" x2="40.989" y2="57.294"/>
<polyline class="st0" points="42.593,56.267 43.171,56.332 43.62,56.203 "/>
<line class="st0" x1="43.62" y1="56.203" x2="43.62" y2="53.058"/>
<polyline class="st0" points="42.465,53.122 42.593,53.315 42.593,53.571 42.337,53.764 "/>
<line class="st0" x1="42.337" y1="53.764" x2="42.337" y2="56.909"/>
<polyline class="st0" points="43.62,53.058 43.3,53.186 42.85,53.186 42.465,53.122 "/>
<line class="st0" x1="42.465" y1="53.122" x2="42.465" y2="53.122"/>
<polyline class="st0" points="42.337,56.909 42.529,56.781 42.593,56.588 "/>
<line class="st0" x1="42.593" y1="53.443" x2="42.593" y2="56.588"/>
<polyline class="st0" points="40.989,54.598 40.989,57.294 41.566,57.423 41.566,54.278 41.181,54.213 "/>
<polyline class="st0" points="45.739,52.223 45.418,51.453 44.904,50.875 44.198,50.683 43.3,50.811 42.401,51.261 41.502,51.967 
	40.732,52.929 40.09,54.085 39.641,55.24 39.448,56.332 39.512,57.359 39.833,58.193 40.411,58.707 41.117,58.899 42.016,58.771 "/>
<polyline class="st0" points="39.641,56.653 39.769,55.497 40.218,54.342 40.796,53.186 41.631,52.159 42.529,51.453 43.428,51.004 
	44.327,50.875 45.033,51.132 45.546,51.71 45.803,52.544 45.803,53.636 45.546,54.791 45.033,55.946 44.327,57.038 43.428,57.936 
	42.529,58.514 41.631,58.835 40.796,58.771 40.218,58.321 39.769,57.615 39.641,56.653 "/>
<line class="st0" x1="42.144" y1="58.707" x2="42.016" y2="58.771"/>
<line class="st0" x1="45.803" y1="52.352" x2="45.739" y2="52.223"/>
<polyline class="st0" points="40.347,56.46 40.475,55.369 40.86,54.278 41.502,53.25 42.273,52.416 43.107,51.838 43.941,51.646 
	44.648,51.774 45.161,52.223 45.482,52.994 45.482,53.957 45.161,55.048 44.648,56.139 43.941,57.038 43.107,57.808 42.273,58.193 
	41.502,58.257 40.86,57.936 40.475,57.294 40.347,56.46 "/>
<polyline class="st0" points="39.705,56.653 39.833,57.615 40.218,58.321 40.86,58.771 41.631,58.835 42.529,58.514 43.428,57.936 
	44.327,57.038 45.033,55.946 45.546,54.791 45.803,53.636 45.803,52.544 45.546,51.71 45.033,51.132 44.327,50.875 43.428,51.004 
	42.529,51.453 41.631,52.223 40.86,53.186 40.218,54.342 39.833,55.497 39.705,56.653 "/>
<polyline class="st0" points="51.195,93.048 51.067,94.076 50.681,95.038 49.975,96.001 49.077,96.836 47.921,97.67 "/>
<polyline class="st0" points="38.806,102.87 37.33,103.64 35.597,104.218 33.735,104.603 31.809,104.795 29.82,104.795 
	27.83,104.539 "/>
<polyline class="st0" points="15.505,102.677 13.515,102.228 11.718,101.586 10.177,100.815 8.894,99.853 7.931,98.761 
	7.353,97.542 7.16,96.386 "/>
<line class="st0" x1="47.921" y1="97.67" x2="38.806" y2="102.87"/>
<line class="st0" x1="27.83" y1="104.539" x2="15.505" y2="102.677"/>
</svg>
